<svg width="123" height="32" viewBox="0 0 123 32" fill="none" xmlns="http://www.w3.org/2000/svg">
<g clip-path="url(#clip0_2039_342)">
<path fill-rule="evenodd" clip-rule="evenodd" d="M25.4284 28.1437C25.4755 27.0127 24.5919 26.0576 23.4527 26.0086C22.3135 25.9619 21.3514 26.8391 21.3021 27.9701C21.255 29.1011 22.1386 30.0562 23.28 30.1052C24.4193 30.1542 25.3836 29.2747 25.4306 28.1437" fill="white"/>
<path fill-rule="evenodd" clip-rule="evenodd" d="M14.0519 31.1182C14.8906 30.3523 14.9467 29.0543 14.1752 28.2216C13.4038 27.389 12.0964 27.3333 11.2577 28.0992C10.4189 28.8651 10.3629 30.163 11.1366 30.9957C11.908 31.8306 13.2154 31.884 14.0541 31.1182" fill="white"/>
<path fill-rule="evenodd" clip-rule="evenodd" d="M29.4493 7.09553C30.3957 7.7256 30.6513 8.9991 30.0167 9.94087C29.382 10.8804 28.0993 11.1342 27.1507 10.5041C26.2043 9.87407 25.9487 8.60057 26.5833 7.65881C27.2179 6.71704 28.5007 6.46546 29.4471 7.09553" fill="white"/>
<path fill-rule="evenodd" clip-rule="evenodd" d="M3.88409 25.2273C5.02332 25.274 5.98537 24.3968 6.03471 23.2658C6.0818 22.1348 5.19824 21.1797 4.05901 21.1307C2.91979 21.0839 1.95773 21.9611 1.9084 23.0944C1.85906 24.2254 2.74487 25.1827 3.88409 25.2295" fill="white"/>
<path fill-rule="evenodd" clip-rule="evenodd" d="M31.878 19.06C32.1 20.171 31.3712 21.2486 30.2522 21.469C29.1331 21.6894 28.0477 20.9658 27.8257 19.8548C27.6037 18.7439 28.3325 17.6663 29.4516 17.4459C30.5706 17.2255 31.6582 17.9468 31.878 19.0578" fill="white"/>
<path fill-rule="evenodd" clip-rule="evenodd" d="M0.885808 13.9348C1.65725 14.7675 2.96466 14.8232 3.80338 14.0573C4.6421 13.2914 4.69816 11.9934 3.92672 11.1608C3.15528 10.3281 1.84787 10.2724 1.00915 11.0405C0.168188 11.8064 0.114367 13.1044 0.885808 13.9371" fill="white"/>
<path fill-rule="evenodd" clip-rule="evenodd" d="M7.16501 2.76272C7.79965 1.82318 9.0824 1.56937 10.031 2.19944C10.9774 2.82951 11.233 4.10301 10.5984 5.04478C9.96372 5.98432 8.68098 6.23813 7.73237 5.60806C6.78377 4.97798 6.53036 3.70449 7.16501 2.76495" fill="white"/>
<path fill-rule="evenodd" clip-rule="evenodd" d="M9.81793 7.761C10.9706 7.20886 11.8542 6.21366 12.2534 5.00918C12.6548 3.8047 12.5426 2.48222 11.9506 1.35789L14.6731 -0.00244141C15.6419 1.86105 15.8123 3.97168 15.1507 5.95985C14.4892 7.94802 13.0831 9.54212 11.1881 10.4638L9.81793 7.761Z" fill="white"/>
<path fill-rule="evenodd" clip-rule="evenodd" d="M17.5996 31.9998C16.6174 30.143 16.4335 28.0346 17.0816 26.0419C17.7297 24.0493 19.1246 22.4463 21.015 21.5112L22.4032 24.2052C21.255 24.764 20.3781 25.7659 19.9857 26.9726C19.5932 28.1793 19.7143 29.5018 20.3154 30.6216L17.6019 31.9998H17.5996Z" fill="white"/>
<path fill-rule="evenodd" clip-rule="evenodd" d="M19.2165 0.351545C20.3355 0.131132 21.4209 0.854711 21.6429 1.96568C21.865 3.07665 21.1361 4.15423 20.0171 4.37464C18.898 4.59506 17.8126 3.87148 17.5906 2.76051C17.3686 1.64953 18.0952 0.569732 19.2142 0.351545" fill="white"/>
<path fill-rule="evenodd" clip-rule="evenodd" d="M19.1066 9.04117C18.2432 9.04117 17.3933 8.90091 16.5725 8.62261L17.5301 5.75056C18.0347 5.92644 18.5617 6.0155 19.0976 6.0155C19.8377 6.0155 20.5486 5.84629 21.2124 5.51678C22.3538 4.94683 23.2172 3.93382 23.5985 2.72266L26.4914 3.67333C25.85 5.67041 24.4663 7.28454 22.5826 8.22408C21.4904 8.76955 20.3221 9.04562 19.1044 9.04562L19.1066 9.04117Z" fill="white"/>
<path fill-rule="evenodd" clip-rule="evenodd" d="M5.77008 28.3485C6.398 26.347 7.77045 24.7239 9.64747 23.771C10.7508 23.21 11.9371 22.9272 13.1705 22.9272C14.016 22.9272 14.8502 23.0631 15.6553 23.3302L14.7179 26.209C14.2223 26.0397 13.7043 25.9551 13.1817 25.9551C12.4305 25.9551 11.7106 26.1288 11.0379 26.4694C9.90088 27.0461 9.04422 28.0658 8.67195 29.2792L5.77232 28.3485H5.77008Z" fill="white"/>
<path fill-rule="evenodd" clip-rule="evenodd" d="M28.6577 15.4154C27.8324 15.4154 27.0139 15.2841 26.2268 15.0258C24.2242 14.369 22.6185 12.9731 21.6901 11.0918L24.4125 9.73145C24.9687 10.8736 25.9711 11.7508 27.1843 12.1493C27.6642 12.3074 28.1621 12.3875 28.6644 12.3875C29.4269 12.3875 30.1826 12.2005 30.8621 11.8487L32.2323 14.5516C31.1268 15.1171 29.8956 15.4154 28.6599 15.4154H28.6577Z" fill="white"/>
<path fill-rule="evenodd" clip-rule="evenodd" d="M7.85121 22.2215C7.28832 21.0815 6.27917 20.211 5.0637 19.8214C4.59277 19.67 4.10389 19.5943 3.61277 19.5943C2.83908 19.5943 2.07437 19.7858 1.38815 20.1487L0 17.4547C1.11904 16.8736 2.3659 16.5664 3.61949 16.5664C4.42682 16.5664 5.22741 16.6933 6.00109 16.9404C8.00819 17.5839 9.62283 18.9687 10.5647 20.8455L7.85121 22.2237V22.2215Z" fill="white"/>
<path fill-rule="evenodd" clip-rule="evenodd" d="M28.5366 26.2849C26.525 25.6481 24.8991 24.2744 23.9528 22.4042C23.0042 20.5341 22.8629 18.4212 23.5469 16.4375L26.4398 17.3882C26.0182 18.586 26.1011 19.9107 26.6775 21.0439C27.2516 22.1771 28.2719 23.0343 29.4919 23.4128L28.5343 26.2849H28.5366Z" fill="white"/>
<path fill-rule="evenodd" clip-rule="evenodd" d="M5.83065 14.594C6.24328 13.3917 6.15134 12.0693 5.56827 10.9405C4.98745 9.81169 3.96035 8.9612 2.73816 8.59162L3.67555 5.71289C5.69161 6.33628 7.32644 7.69884 8.28626 9.56233C9.24607 11.4258 9.40305 13.5387 8.73252 15.5268L5.83289 14.5962L5.83065 14.594Z" fill="white"/>
<path d="M47.2059 10.1458H40.7114V0.436523H38.7649V11.8869H47.2059V10.1458Z" fill="white"/>
<path d="M50.7851 3.49121H48.9193V11.887H50.7851V3.49121Z" fill="white"/>
<path d="M49.8521 2.43138C50.1549 2.43138 50.4195 2.32006 50.6438 2.09742C50.868 1.87478 50.9801 1.61206 50.9801 1.3115C50.9801 1.01094 50.868 0.74822 50.6438 0.525581C50.4217 0.305167 50.1549 0.193848 49.8521 0.193848C49.5494 0.193848 49.2848 0.305167 49.0672 0.527807C48.852 0.74822 48.7421 1.01316 48.7421 1.3115C48.7421 1.60984 48.852 1.87478 49.0672 2.09519C49.2848 2.31783 49.5471 2.42915 49.8521 2.42915V2.43138Z" fill="white"/>
<path d="M56.2995 4.97615C56.8467 4.97615 57.266 5.14313 57.5822 5.48599C57.8962 5.82886 58.0554 6.30753 58.0554 6.91311V11.8869H59.9055V6.64149C59.9055 6.52349 59.8988 6.39659 59.8898 6.26968C59.8809 6.16282 59.8674 6.0604 59.8495 5.96467C60.067 5.64184 60.3249 5.39471 60.6164 5.23218C60.9192 5.06298 61.26 4.97615 61.6345 4.97615C62.1817 4.97615 62.6011 5.14313 62.9173 5.48599C63.2312 5.82886 63.3905 6.30753 63.3905 6.91311V11.8869H65.2563V6.64149C65.2563 5.67301 64.9535 4.87151 64.3593 4.25702C63.7627 3.64254 62.9846 3.33084 62.0517 3.33084C61.4551 3.33084 60.908 3.45107 60.4236 3.68706C59.9907 3.89857 59.6095 4.20581 59.2888 4.59766C59.0309 4.22585 58.6968 3.92529 58.2931 3.70487C57.8356 3.45552 57.3154 3.32861 56.7502 3.32861C56.2726 3.32861 55.8286 3.41322 55.4271 3.57797C55.1177 3.7071 54.8306 3.88076 54.5727 4.09449V3.48669H52.7069V11.8824H54.5727V5.87561C54.7813 5.5795 55.0302 5.35463 55.3105 5.20324C55.6021 5.04962 55.934 4.96947 56.2972 4.96947L56.2995 4.97615Z" fill="white"/>
<path d="M71.3673 12.0316C71.9907 12.0316 72.5738 11.9403 73.1008 11.76C73.6278 11.5797 74.1391 11.3014 74.619 10.9318L74.7334 10.8427L73.5134 9.6516L73.4237 9.72953C73.1793 9.94103 72.8788 10.1102 72.5312 10.2327C72.1813 10.3551 71.8113 10.4175 71.4301 10.4175C70.7551 10.4175 70.1653 10.2037 69.6764 9.78519C69.2234 9.39779 68.9341 8.91021 68.8108 8.3358H75.2626V7.74581C75.2626 7.13577 75.1572 6.55468 74.9486 6.02035C74.7401 5.48601 74.453 5.01847 74.0942 4.62885C73.7354 4.23923 73.2981 3.92754 72.7958 3.70267C72.2934 3.4778 71.7463 3.36426 71.1722 3.36426C70.5981 3.36426 70.0285 3.4778 69.5104 3.70267C68.9924 3.92754 68.5394 4.23478 68.1649 4.61772C67.7904 5.00066 67.4876 5.46152 67.2679 5.98473C67.0481 6.51016 66.936 7.08011 66.936 7.68124C66.936 8.28237 67.0503 8.87236 67.2768 9.40225C67.5033 9.93213 67.8173 10.3952 68.2165 10.7804C68.6134 11.1633 69.0866 11.4706 69.6248 11.6932C70.1653 11.9181 70.7506 12.0316 71.365 12.0316H71.3673ZM68.8332 6.88196C68.961 6.34095 69.2256 5.88677 69.6248 5.53499C70.0554 5.15205 70.5667 4.95836 71.143 4.95836C71.7194 4.95836 72.1903 5.15651 72.6097 5.54835C72.9976 5.90903 73.2577 6.35653 73.3856 6.88196H68.8332Z" fill="white"/>
<path d="M80.7636 4.97579C81.3377 4.97579 81.8041 5.14945 82.1473 5.49008C82.4904 5.83072 82.6653 6.3094 82.6653 6.91275V11.8865H84.5311V6.64113C84.5311 5.67265 84.2149 4.86892 83.5915 4.25443C82.968 3.63995 82.163 3.33048 81.1987 3.33048C80.6896 3.33048 80.2164 3.41731 79.7903 3.58874C79.4517 3.72455 79.1422 3.91157 78.8619 4.14534V0.0532227L76.9961 0.460653V11.8865H78.8619V5.94427C79.0705 5.63703 79.3373 5.3988 79.6558 5.23405C79.9854 5.06262 80.3577 4.97579 80.7658 4.97579H80.7636Z" fill="white"/>
<path d="M93.7233 4.59098C93.3309 4.20136 92.8622 3.89189 92.3285 3.66703C91.7925 3.44216 91.2162 3.32861 90.6107 3.32861C90.0052 3.32861 89.4288 3.44216 88.8929 3.66703C88.3591 3.88967 87.8882 4.20136 87.4913 4.58875C87.0943 4.97837 86.7781 5.44369 86.5539 5.97357C86.3274 6.50346 86.213 7.07787 86.213 7.67899C86.213 8.28012 86.3274 8.87011 86.5539 9.4C86.7804 9.92988 87.0943 10.3952 87.4913 10.7848C87.8882 11.1744 88.3591 11.4839 88.8929 11.7065C89.4266 11.9314 90.0052 12.045 90.6107 12.045C91.2162 12.045 91.7925 11.9314 92.3285 11.7065C92.8622 11.4839 93.3309 11.1722 93.7233 10.7826C94.1136 10.3952 94.4275 9.92765 94.6518 9.39777C94.8783 8.86789 94.9926 8.28903 94.9926 7.67677C94.9926 7.06451 94.8783 6.50346 94.6518 5.97135C94.4253 5.44146 94.1136 4.97615 93.7233 4.58653V4.59098ZM93.1582 7.68122C93.1582 8.43374 92.9071 9.0794 92.4114 9.6026C91.9114 10.1303 91.3216 10.3863 90.6107 10.3863C89.8998 10.3863 89.2876 10.1236 88.7942 9.6026C88.2986 9.08162 88.0474 8.43374 88.0474 7.68122C88.0474 6.9287 88.3008 6.28527 88.8009 5.76874C89.2988 5.25222 89.9088 4.99173 90.6107 4.99173C91.3126 4.99173 91.9181 5.25222 92.4114 5.76874C92.9071 6.28527 93.1582 6.9287 93.1582 7.68122Z" fill="white"/>
<path d="M102.346 9.41788C102.137 9.72512 101.871 9.9678 101.559 10.137C101.236 10.3129 100.866 10.4019 100.46 10.4019C99.877 10.4019 99.424 10.2305 99.0764 9.87874C98.731 9.53142 98.5561 9.05052 98.5561 8.44717V3.49121H96.6903V8.72102C96.6903 9.6895 97.0043 10.4955 97.621 11.1144C98.2399 11.7333 99.0428 12.0473 100.007 12.0473C100.514 12.0473 100.989 11.9604 101.415 11.789C101.752 11.6532 102.063 11.4662 102.344 11.2324V11.887H104.21V3.49121H102.344V9.41788H102.346Z" fill="white"/>
<path d="M110.404 6.94854L108.923 6.74149C108.464 6.67024 108.132 6.56338 107.941 6.42089C107.764 6.28953 107.679 6.10251 107.679 5.84202C107.679 5.55259 107.809 5.3255 108.074 5.14739C108.352 4.96037 108.728 4.86463 109.195 4.86463C109.61 4.86463 110.027 4.9292 110.437 5.05833C110.848 5.18746 111.28 5.4012 111.718 5.69063L111.816 5.75519L112.792 4.49951L112.682 4.42381C112.159 4.06758 111.612 3.79819 111.061 3.62453C110.507 3.45087 109.917 3.36182 109.307 3.36182C108.327 3.36182 107.52 3.60004 106.91 4.06758C106.288 4.54403 105.974 5.17856 105.974 5.95112C105.974 6.61458 106.196 7.15337 106.636 7.55635C107.067 7.95042 107.706 8.21091 108.533 8.33336L110.016 8.54042C110.442 8.60053 110.756 8.70962 110.953 8.86547C111.137 9.01241 111.227 9.20611 111.227 9.45547C111.227 9.77384 111.067 10.0276 110.74 10.228C110.397 10.4395 109.942 10.5442 109.39 10.5442C108.946 10.5442 108.504 10.4573 108.076 10.2881C107.643 10.1167 107.21 9.86735 106.793 9.54675L106.694 9.47105L105.667 10.7156L105.759 10.7958C106.221 11.201 106.775 11.5104 107.407 11.7175C108.035 11.9245 108.719 12.027 109.437 12.027C109.93 12.027 110.399 11.9579 110.83 11.8199C111.26 11.6841 111.637 11.4971 111.953 11.2655C112.272 11.0318 112.529 10.7468 112.713 10.4173C112.899 10.0855 112.996 9.72263 112.996 9.33969C112.996 8.67623 112.767 8.13299 112.319 7.72555C111.877 7.32703 111.233 7.06209 110.406 6.94186L110.404 6.94854Z" fill="white"/>
<path d="M123 7.74581C123 7.13577 122.895 6.55468 122.686 6.02035C122.477 5.48601 122.19 5.01847 121.832 4.62885C121.473 4.23923 121.035 3.92754 120.533 3.70267C120.031 3.4778 119.484 3.36426 118.91 3.36426C118.335 3.36426 117.766 3.4778 117.248 3.70267C116.73 3.92754 116.277 4.23478 115.902 4.61772C115.528 5.00066 115.225 5.46152 115.005 5.98473C114.785 6.51016 114.673 7.08011 114.673 7.68124C114.673 8.28237 114.788 8.87236 115.014 9.40225C115.241 9.93213 115.555 10.3952 115.954 10.7804C116.351 11.1633 116.824 11.4706 117.362 11.6932C117.903 11.9181 118.488 12.0316 119.102 12.0316C119.717 12.0316 120.309 11.9403 120.836 11.76C121.363 11.5797 121.874 11.3014 122.354 10.9318L122.468 10.8427L121.249 9.6516L121.159 9.72953C120.914 9.94103 120.614 10.1102 120.266 10.2327C119.916 10.3551 119.546 10.4175 119.165 10.4175C118.49 10.4175 117.9 10.2037 117.412 9.78519C116.959 9.39779 116.669 8.91021 116.546 8.3358H122.998V7.74581H123ZM116.568 6.88196C116.696 6.34095 116.961 5.88677 117.36 5.53499C117.791 5.15205 118.302 4.95836 118.878 4.95836C119.454 4.95836 119.925 5.15651 120.345 5.54835C120.733 5.90903 120.993 6.35653 121.121 6.88196H116.568Z" fill="white"/>
<path d="M44.1134 17.1187H38.7649V28.569H40.7114V24.0583H44.1134C45.2257 24.0583 46.1496 23.7355 46.8583 23.0988C47.5692 22.4576 47.9302 21.6182 47.9302 20.6052C47.9302 19.5922 47.5714 18.735 46.865 18.0894C46.1609 17.4459 45.2347 17.1209 44.1112 17.1209L44.1134 17.1187ZM40.7114 18.8441H43.9362C44.5574 18.8441 45.0575 19.0066 45.4231 19.325C45.7908 19.6434 45.968 20.0642 45.968 20.6052C45.968 21.1462 45.7886 21.5692 45.4231 21.8943C45.0575 22.2171 44.5574 22.3819 43.9362 22.3819H40.7114V18.8441Z" fill="white"/>
<path d="M54.1422 20.0329C54.0054 20.0106 53.8462 19.9995 53.669 19.9995C53.1667 19.9995 52.7069 20.1086 52.3033 20.3268C52.0117 20.4826 51.7561 20.6919 51.5408 20.9502V20.1754H49.675V28.5711H51.5408V23.0319C51.7337 22.5777 52.005 22.2304 52.3481 21.9988C52.6957 21.7628 53.0971 21.6448 53.5412 21.6448C53.6937 21.6448 53.8462 21.6604 53.9986 21.6893C54.1511 21.7205 54.3036 21.7606 54.4472 21.8118L54.6176 21.8719V20.1643L54.5346 20.1331C54.409 20.0886 54.2767 20.0529 54.1422 20.0307V20.0329Z" fill="white"/>
<path d="M63.451 21.2756C63.0586 20.8859 62.5899 20.5765 62.0561 20.3516C61.5202 20.1267 60.9438 20.0132 60.3383 20.0132C59.7328 20.0132 59.1565 20.1267 58.6205 20.3516C58.0868 20.5742 57.6159 20.8859 57.2189 21.2733C56.822 21.6629 56.5058 22.1283 56.2815 22.6581C56.055 23.188 55.9407 23.7624 55.9407 24.3636C55.9407 24.9647 56.055 25.5547 56.2815 26.0846C56.508 26.6145 56.822 27.0798 57.2189 27.4694C57.6159 27.859 58.0868 28.1685 58.6205 28.3911C59.1543 28.616 59.7328 28.7295 60.3383 28.7295C60.9438 28.7295 61.5202 28.616 62.0561 28.3911C62.5899 28.1685 63.0586 27.8568 63.451 27.4672C63.8412 27.0775 64.1552 26.6122 64.3794 26.0823C64.6059 25.5525 64.7203 24.9736 64.7203 24.3613C64.7203 23.7491 64.6059 23.188 64.3794 22.6559C64.1529 22.126 63.8412 21.6607 63.451 21.2711V21.2756ZM62.8881 24.3658C62.8881 25.1183 62.637 25.764 62.1414 26.2872C61.6413 26.8148 61.0515 27.0709 60.3406 27.0709C59.6297 27.0709 59.0175 26.8081 58.5241 26.2872C58.0285 25.7662 57.7773 25.1183 57.7773 24.3658C57.7773 23.6133 58.0307 22.9698 58.5308 22.4533C59.0287 21.9368 59.6387 21.6763 60.3406 21.6763C61.0425 21.6763 61.648 21.9368 62.1414 22.4533C62.637 22.9698 62.8881 23.6133 62.8881 24.3658Z" fill="white"/>
<path d="M66.6265 29.4997C66.6265 29.8159 66.5615 30.0407 66.4292 30.1699C66.2991 30.299 66.0703 30.3658 65.7541 30.3658C65.6308 30.3658 65.5232 30.3613 65.429 30.3502C65.337 30.3391 65.2361 30.3235 65.133 30.3034L64.9805 30.2723V31.7996L65.0702 31.8263C65.1845 31.8597 65.3258 31.8886 65.5007 31.9109C65.6734 31.9332 65.8506 31.9443 66.0255 31.9443C66.7969 31.9443 67.4069 31.7395 67.8375 31.3343C68.2703 30.9268 68.4901 30.348 68.4901 29.611V20.1733H66.6243V29.4975L66.6265 29.4997Z" fill="white"/>
<path d="M67.5594 16.8806C67.2567 16.8806 66.992 16.992 66.7745 17.2146C66.5592 17.435 66.4493 17.7 66.4493 17.9983C66.4493 18.2966 66.5592 18.5616 66.7745 18.782C66.992 19.0046 67.2567 19.1159 67.5594 19.1159C67.8622 19.1159 68.1268 19.0046 68.351 18.782C68.5753 18.5593 68.6874 18.2966 68.6874 17.9961C68.6874 17.6955 68.5753 17.4328 68.351 17.2102C68.129 16.9897 67.8622 16.8784 67.5594 16.8784V16.8806Z" fill="white"/>
<path d="M77.3796 21.311C77.0208 20.9214 76.5835 20.6097 76.0811 20.3848C75.5788 20.1599 75.0316 20.0464 74.4575 20.0464C73.8834 20.0464 73.3138 20.1599 72.7958 20.3848C72.2777 20.6097 71.8247 20.9169 71.4502 21.2998C71.0757 21.6828 70.773 22.1437 70.5532 22.6669C70.3334 23.1923 70.2213 23.7622 70.2213 24.3634C70.2213 24.9645 70.3357 25.5545 70.5622 26.0844C70.7887 26.6143 71.1026 27.0773 71.5018 27.4625C71.8987 27.8455 72.3719 28.1527 72.9101 28.3753C73.4506 28.6002 74.0359 28.7137 74.6504 28.7137C75.2648 28.7137 75.8569 28.6225 76.3839 28.4421C76.9109 28.2618 77.4222 27.9835 77.9021 27.6139L78.0165 27.5249L76.7965 26.3337L76.7068 26.4117C76.4624 26.6232 76.1619 26.7924 75.8143 26.9148C75.4644 27.0373 75.0944 27.0996 74.7132 27.0996C74.0382 27.0996 73.4484 26.8859 72.9595 26.4673C72.5065 26.0799 72.2172 25.5923 72.0939 25.0179H78.5457V24.4279C78.5457 23.8179 78.4403 23.2368 78.2317 22.7025C78.0232 22.1681 77.7361 21.7006 77.3773 21.311H77.3796ZM72.1163 23.5663C72.2441 23.0253 72.5087 22.5711 72.9079 22.2194C73.3385 21.8364 73.8498 21.6427 74.4261 21.6427C75.0025 21.6427 75.4734 21.8409 75.8928 22.2327C76.2807 22.5934 76.5409 23.0409 76.6687 23.5663H72.1163Z" fill="white"/>
<path d="M84.4975 21.6918C84.8967 21.6918 85.2846 21.7764 85.6524 21.9434C86.0224 22.1104 86.3611 22.3575 86.6593 22.6759L86.7535 22.7761L87.9443 21.5004L87.8568 21.4135C87.4173 20.9772 86.8925 20.6321 86.3005 20.3872C85.7085 20.1423 85.0895 20.0176 84.4639 20.0176C83.8382 20.0176 83.2843 20.1311 82.755 20.356C82.2258 20.5809 81.7638 20.8903 81.3758 21.2799C80.9901 21.6673 80.6807 22.1327 80.4542 22.6625C80.2277 23.1924 80.1133 23.7668 80.1133 24.368C80.1133 24.9691 80.2277 25.5591 80.4542 26.089C80.6807 26.6188 80.9901 27.0819 81.3758 27.4649C81.7616 27.8478 82.2258 28.1551 82.7528 28.3799C83.282 28.6048 83.8584 28.7183 84.4616 28.7183C85.0649 28.7183 85.6973 28.5937 86.2691 28.3488C86.841 28.1038 87.3523 27.7588 87.7918 27.3224L87.8793 27.2356L86.7401 26.011L86.6459 26.1045C86.3252 26.4229 85.9843 26.6656 85.6345 26.8237C85.2869 26.9817 84.9146 27.0597 84.5266 27.0597C83.8135 27.0597 83.2035 26.8014 82.7079 26.2916C82.2123 25.7795 81.9612 25.1338 81.9612 24.3702C81.9612 23.6065 82.2101 22.9898 82.699 22.4733C83.1878 21.959 83.7911 21.6963 84.4908 21.6963L84.4975 21.6918Z" fill="white"/>
<path d="M92.5864 17.6777L90.7363 18.123V20.1758H88.996V21.7721H90.7363V26.4297C90.7363 27.1689 90.9628 27.741 91.4068 28.1329C91.8486 28.5203 92.4877 28.7162 93.313 28.7162C93.5529 28.7162 93.822 28.6939 94.1136 28.6516C94.4051 28.6071 94.6652 28.547 94.885 28.4691L94.9702 28.4401V26.826L94.7998 26.8883C94.6047 26.9596 94.4208 27.0086 94.2526 27.0331C94.0822 27.0575 93.8848 27.0709 93.6673 27.0709C93.2726 27.0709 92.99 26.9952 92.8263 26.8483C92.6671 26.7035 92.5864 26.4386 92.5864 26.0623V21.7743H95.0039V20.178H92.5864V17.68V17.6777Z" fill="white"/>
</g>
<defs>
<clipPath id="clip0_2039_342">
<rect width="123" height="32" fill="white"/>
</clipPath>
</defs>
</svg>
