<svg width="178" height="45" viewBox="0 0 178 45" fill="none" xmlns="http://www.w3.org/2000/svg">
<g clip-path="url(#clip0_988_4661)">
<path fill-rule="evenodd" clip-rule="evenodd" d="M36.7992 39.5778C36.8674 37.9873 35.5887 36.6441 33.9401 36.5753C32.2914 36.5095 30.8992 37.7431 30.8278 39.3336C30.7596 40.924 32.0383 42.2672 33.6902 42.3361C35.3388 42.4049 36.7343 41.1683 36.8025 39.5778" fill="#782C9D"/>
<path fill-rule="evenodd" clip-rule="evenodd" d="M20.3351 43.7603C21.5489 42.6833 21.63 40.858 20.5136 39.6871C19.3972 38.5161 17.5052 38.4379 16.2915 39.5149C15.0777 40.5919 14.9966 42.4172 16.1162 43.5881C17.2326 44.7622 19.1246 44.8374 20.3384 43.7603" fill="#782C9D"/>
<path fill-rule="evenodd" clip-rule="evenodd" d="M42.6173 9.9782C43.9869 10.8642 44.3568 12.6551 43.4384 13.9794C42.52 15.3007 40.6636 15.6576 39.2909 14.7716C37.9213 13.8855 37.5514 12.0947 38.4698 10.7703C39.3882 9.44595 41.2446 9.09216 42.6141 9.9782" fill="#782C9D"/>
<path fill-rule="evenodd" clip-rule="evenodd" d="M5.62077 35.4762C7.2694 35.5419 8.66165 34.3084 8.73305 32.7179C8.8012 31.1274 7.52254 29.7843 5.87391 29.7154C4.22528 29.6497 2.83303 30.8832 2.76163 32.4768C2.69024 34.0673 3.97214 35.4136 5.62077 35.4793" fill="#782C9D"/>
<path fill-rule="evenodd" clip-rule="evenodd" d="M46.1329 26.8036C46.4542 28.3659 45.3994 29.8813 43.78 30.1912C42.1606 30.5012 40.5899 29.4837 40.2686 27.9213C39.9473 26.359 41.002 24.8437 42.6214 24.5337C44.2409 24.2238 45.8148 25.2382 46.1329 26.8005" fill="#782C9D"/>
<path fill-rule="evenodd" clip-rule="evenodd" d="M1.28158 19.5965C2.39797 20.7674 4.29 20.8457 5.50376 19.7687C6.71751 18.6916 6.79865 16.8663 5.68225 15.6954C4.56586 14.5245 2.67383 14.4462 1.46007 15.5263C0.243074 16.6034 0.165186 18.4287 1.28158 19.5996" fill="#782C9D"/>
<path fill-rule="evenodd" clip-rule="evenodd" d="M10.3691 3.8857C11.2875 2.56447 13.1438 2.20755 14.5166 3.09359C15.8861 3.97963 16.2561 5.77048 15.3377 7.09484C14.4193 8.41607 12.5629 8.77299 11.1902 7.88695C9.81738 7.00092 9.45065 5.21006 10.3691 3.88883" fill="#782C9D"/>
<path fill-rule="evenodd" clip-rule="evenodd" d="M14.208 10.9144C15.8761 10.138 17.1548 8.73846 17.7324 7.04466C18.3134 5.35086 18.1511 3.49112 17.2943 1.91003L21.2342 -0.00292969C22.6361 2.61761 22.8828 5.58567 21.9254 8.38154C20.968 11.1774 18.9332 13.4191 16.1909 14.7153L14.208 10.9144Z" fill="#782C9D"/>
<path fill-rule="evenodd" clip-rule="evenodd" d="M25.4695 45C24.048 42.3889 23.7819 39.4239 24.7198 36.6218C25.6577 33.8197 27.6763 31.5655 30.4121 30.2505L32.421 34.0388C30.7594 34.8247 29.4904 36.2336 28.9225 37.9305C28.3546 39.6274 28.5298 41.4872 29.3996 43.062L25.4727 45H25.4695Z" fill="#782C9D"/>
<path fill-rule="evenodd" clip-rule="evenodd" d="M27.81 0.495047C29.4295 0.18509 31.0002 1.20262 31.3215 2.76493C31.6428 4.32723 30.588 5.84257 28.9686 6.15253C27.3492 6.46249 25.7785 5.44495 25.4572 3.88265C25.1359 2.32034 26.1874 0.801872 27.8068 0.495047" fill="#782C9D"/>
<path fill-rule="evenodd" clip-rule="evenodd" d="M27.6506 12.715C26.4012 12.715 25.1712 12.5178 23.9834 12.1264L25.3692 8.08757C26.0994 8.33491 26.862 8.46015 27.6376 8.46015C28.7086 8.46015 29.7374 8.2222 30.698 7.75883C32.3499 6.95733 33.5993 5.53278 34.151 3.82959L38.3375 5.16647C37.4093 7.97486 35.407 10.2447 32.6809 11.566C31.1004 12.333 29.4096 12.7213 27.6474 12.7213L27.6506 12.715Z" fill="#782C9D"/>
<path fill-rule="evenodd" clip-rule="evenodd" d="M8.35059 39.8654C9.25928 37.0507 11.2454 34.7683 13.9618 33.4283C15.5585 32.6393 17.2753 32.2417 19.0602 32.2417C20.2837 32.2417 21.4909 32.4327 22.656 32.8084L21.2995 36.8566C20.5822 36.6187 19.8326 36.4997 19.0764 36.4997C17.9892 36.4997 16.9475 36.7439 15.9739 37.2229C14.3285 38.0338 13.0888 39.4677 12.55 41.1741L8.35383 39.8654H8.35059Z" fill="#782C9D"/>
<path fill-rule="evenodd" clip-rule="evenodd" d="M41.4719 21.6782C40.2776 21.6782 39.0931 21.4934 37.954 21.1303C35.0559 20.2067 32.7322 18.2436 31.3887 15.598L35.3285 13.6851C36.1333 15.2912 37.584 16.5248 39.3397 17.0852C40.0342 17.3075 40.7547 17.4202 41.4817 17.4202C42.5851 17.4202 43.6787 17.1572 44.6621 16.6625L46.645 20.4634C45.045 21.2586 43.2633 21.6782 41.4752 21.6782H41.4719Z" fill="#782C9D"/>
<path fill-rule="evenodd" clip-rule="evenodd" d="M11.3619 31.2493C10.5473 29.6463 9.08693 28.4221 7.32796 27.8742C6.64644 27.6613 5.93896 27.5549 5.22823 27.5549C4.10859 27.5549 3.00193 27.8241 2.00886 28.3344L0 24.5461C1.61942 23.7289 3.42383 23.2969 5.23797 23.2969C6.40629 23.2969 7.56487 23.4753 8.68451 23.8229C11.5891 24.7277 13.9257 26.6751 15.2888 29.3144L11.3619 31.2524V31.2493Z" fill="#782C9D"/>
<path fill-rule="evenodd" clip-rule="evenodd" d="M41.297 36.9631C38.3859 36.0676 36.0331 34.1359 34.6635 31.506C33.2908 28.876 33.0863 25.9048 34.0761 23.1152L38.2626 24.4521C37.6525 26.1365 37.7726 27.9994 38.6066 29.593C39.4374 31.1866 40.914 32.392 42.6795 32.9243L41.2937 36.9631H41.297Z" fill="#782C9D"/>
<path fill-rule="evenodd" clip-rule="evenodd" d="M8.4382 20.5232C9.03535 18.8326 8.90229 16.9728 8.0585 15.3855C7.21796 13.7981 5.7316 12.6021 3.96289 12.0824L5.31944 8.03418C8.23699 8.91082 10.6028 10.8269 11.9918 13.4475C13.3808 16.068 13.608 19.0392 12.6377 21.8351L8.44145 20.5264L8.4382 20.5232Z" fill="#782C9D"/>
<path d="M68.3141 14.2675H58.9156V0.61377H56.0986V16.7158H68.3141V14.2675Z" fill="#782C9D"/>
<path d="M73.4941 4.90918H70.7939V16.7157H73.4941V4.90918Z" fill="#782C9D"/>
<path d="M72.1435 3.41899C72.5817 3.41899 72.9646 3.26244 73.2891 2.94936C73.6137 2.63627 73.7759 2.26683 73.7759 1.84416C73.7759 1.42149 73.6137 1.05205 73.2891 0.738961C72.9679 0.429004 72.5817 0.272461 72.1435 0.272461C71.7054 0.272461 71.3225 0.429004 71.0077 0.742091C70.6961 1.05205 70.5371 1.42462 70.5371 1.84416C70.5371 2.26369 70.6961 2.63627 71.0077 2.94622C71.3225 3.25931 71.7022 3.41585 72.1435 3.41585V3.41899Z" fill="#782C9D"/>
<path d="M81.4744 6.99751C82.2663 6.99751 82.8731 7.23232 83.3307 7.71448C83.7851 8.19663 84.0155 8.86977 84.0155 9.72137V16.7157H86.6929V9.3394C86.6929 9.17346 86.6832 8.995 86.6702 8.81654C86.6572 8.66626 86.6377 8.52224 86.6118 8.38762C86.9266 7.93364 87.2998 7.58611 87.7217 7.35756C88.1598 7.11961 88.6531 6.99751 89.1951 6.99751C89.9869 6.99751 90.5938 7.23232 91.0514 7.71448C91.5057 8.19663 91.7362 8.86977 91.7362 9.72137V16.7157H94.4363V9.3394C94.4363 7.97747 93.9981 6.85036 93.1381 5.98624C92.2749 5.12212 91.1488 4.6838 89.7987 4.6838C88.9354 4.6838 88.1436 4.85286 87.4426 5.18473C86.8162 5.48217 86.2645 5.91423 85.8004 6.46526C85.4272 5.9424 84.9437 5.51974 84.3595 5.20978C83.6975 4.85912 82.9445 4.68066 82.1267 4.68066C81.4355 4.68066 80.7929 4.79964 80.212 5.03132C79.7641 5.21291 79.3487 5.45712 78.9755 5.75768V4.90296H76.2754V16.7095H78.9755V8.26238C79.2773 7.84597 79.6376 7.52976 80.0432 7.31686C80.4651 7.10083 80.9454 6.98812 81.4712 6.98812L81.4744 6.99751Z" fill="#782C9D"/>
<path d="M103.279 16.9194C104.181 16.9194 105.025 16.7911 105.788 16.5375C106.55 16.2839 107.29 15.8925 107.985 15.3728L108.15 15.2476L106.385 13.5725L106.255 13.6821C105.901 13.9795 105.466 14.2175 104.963 14.3897C104.457 14.5619 103.922 14.6496 103.37 14.6496C102.393 14.6496 101.539 14.349 100.832 13.7604C100.176 13.2156 99.7578 12.53 99.5793 11.7222H108.916V10.8925C108.916 10.0347 108.764 9.21749 108.462 8.46609C108.16 7.71468 107.745 7.05719 107.225 6.50929C106.706 5.96139 106.073 5.52307 105.346 5.20685C104.619 4.89063 103.827 4.73096 102.997 4.73096C102.166 4.73096 101.342 4.89063 100.592 5.20685C99.8422 5.52307 99.1866 5.95513 98.6446 6.49364C98.1027 7.03215 97.6646 7.68024 97.3465 8.41599C97.0285 9.15488 96.8662 9.95638 96.8662 10.8017C96.8662 11.647 97.0317 12.4767 97.3595 13.2219C97.6873 13.967 98.1416 14.6182 98.7193 15.1599C99.2937 15.6984 99.9785 16.1305 100.757 16.4435C101.539 16.7598 102.387 16.9194 103.276 16.9194H103.279ZM99.6118 9.67773C99.7967 8.91693 100.18 8.27823 100.757 7.78356C101.38 7.24505 102.12 6.97266 102.954 6.97266C103.788 6.97266 104.47 7.25131 105.077 7.80234C105.638 8.30954 106.015 8.93885 106.2 9.67773H99.6118Z" fill="#782C9D"/>
<path d="M116.877 6.99755C117.708 6.99755 118.383 7.24176 118.879 7.72078C119.376 8.19981 119.629 8.87294 119.629 9.72141V16.7158H122.329V9.33944C122.329 7.97751 121.872 6.84727 120.969 5.98315C120.067 5.11903 118.902 4.68384 117.507 4.68384C116.77 4.68384 116.085 4.80594 115.468 5.04702C114.978 5.238 114.531 5.50099 114.125 5.82974V0.0751953L111.425 0.648145V16.7158H114.125V8.35948C114.427 7.92742 114.813 7.59242 115.274 7.36073C115.751 7.11965 116.29 6.99755 116.88 6.99755H116.877Z" fill="#782C9D"/>
<path d="M135.632 6.45587C135.064 5.90797 134.386 5.47277 133.614 5.15656C132.838 4.84034 132.004 4.68066 131.128 4.68066C130.252 4.68066 129.417 4.84034 128.642 5.15656C127.869 5.46964 127.188 5.90797 126.614 6.45274C126.039 7.00064 125.581 7.65499 125.257 8.40014C124.929 9.14529 124.764 9.95305 124.764 10.7984C124.764 11.6437 124.929 12.4734 125.257 13.2185C125.585 13.9637 126.039 14.618 126.614 15.1659C127.188 15.7139 127.869 16.149 128.642 16.4621C129.414 16.7783 130.252 16.938 131.128 16.938C132.004 16.938 132.838 16.7783 133.614 16.4621C134.386 16.149 135.064 15.7107 135.632 15.1628C136.197 14.618 136.651 13.9606 136.976 13.2154C137.304 12.4703 137.469 11.6562 137.469 10.7953C137.469 9.93426 137.304 9.14529 136.976 8.39701C136.648 7.65186 136.197 6.99751 135.632 6.44961V6.45587ZM134.814 10.8015C134.814 11.8597 134.451 12.7677 133.734 13.5035C133.01 14.2455 132.157 14.6055 131.128 14.6055C130.099 14.6055 129.213 14.2361 128.499 13.5035C127.782 12.7708 127.418 11.8597 127.418 10.8015C127.418 9.74328 127.785 8.83846 128.509 8.1121C129.229 7.38574 130.112 7.01942 131.128 7.01942C132.144 7.01942 133.02 7.38574 133.734 8.1121C134.451 8.83846 134.814 9.74328 134.814 10.8015Z" fill="#782C9D"/>
<path d="M148.111 13.2436C147.809 13.6756 147.422 14.0169 146.971 14.2548C146.504 14.5022 145.969 14.6274 145.381 14.6274C144.537 14.6274 143.882 14.3863 143.379 13.8916C142.879 13.4032 142.626 12.727 142.626 11.8785V4.90918H139.926V12.2636C139.926 13.6255 140.38 14.7589 141.273 15.6293C142.168 16.4997 143.33 16.9411 144.726 16.9411C145.459 16.9411 146.147 16.819 146.764 16.5779C147.25 16.387 147.702 16.124 148.107 15.7952V16.7157H150.807V4.90918H148.107V13.2436H148.111Z" fill="#782C9D"/>
<path d="M159.771 9.77137L157.629 9.4802C156.964 9.38001 156.484 9.22973 156.208 9.02936C155.951 8.84463 155.828 8.58164 155.828 8.21533C155.828 7.80832 156.016 7.48897 156.399 7.2385C156.802 6.9755 157.347 6.84088 158.022 6.84088C158.622 6.84088 159.226 6.93167 159.82 7.11326C160.414 7.29485 161.04 7.59542 161.673 8.00243L161.816 8.09323L163.227 6.32741L163.068 6.22096C162.312 5.72003 161.52 5.34119 160.722 5.09698C159.92 4.85277 159.067 4.72754 158.184 4.72754C156.766 4.72754 155.598 5.06254 154.715 5.72003C153.816 6.39003 153.362 7.28233 153.362 8.36874C153.362 9.30174 153.683 10.0594 154.319 10.6261C154.942 11.1803 155.867 11.5466 157.065 11.7188L159.21 12.0099C159.826 12.0945 160.281 12.2479 160.566 12.4671C160.832 12.6737 160.962 12.9461 160.962 13.2967C160.962 13.7444 160.732 14.1014 160.258 14.3831C159.761 14.6806 159.103 14.8277 158.304 14.8277C157.662 14.8277 157.022 14.7056 156.402 14.4677C155.776 14.2266 155.15 13.8759 154.546 13.4251L154.403 13.3186L152.917 15.0688L153.05 15.1815C153.719 15.7513 154.52 16.1865 155.435 16.4777C156.344 16.7689 157.334 16.9129 158.372 16.9129C159.086 16.9129 159.765 16.8158 160.388 16.6217C161.011 16.4307 161.556 16.1677 162.014 15.8421C162.474 15.5134 162.848 15.1126 163.114 14.6493C163.383 14.1828 163.523 13.6724 163.523 13.1339C163.523 12.2009 163.192 11.437 162.543 10.864C161.903 10.3036 160.972 9.93105 159.774 9.76198L159.771 9.77137Z" fill="#782C9D"/>
<path d="M178 10.8925C178 10.0347 177.848 9.21749 177.546 8.46609C177.244 7.71468 176.829 7.05719 176.309 6.50929C175.79 5.96139 175.157 5.52307 174.43 5.20685C173.703 4.89063 172.911 4.73096 172.081 4.73096C171.25 4.73096 170.426 4.89063 169.676 5.20685C168.926 5.52307 168.271 5.95513 167.729 6.49364C167.187 7.03215 166.749 7.68024 166.431 8.41599C166.112 9.15488 165.95 9.95638 165.95 10.8017C165.95 11.647 166.116 12.4767 166.443 13.2219C166.771 13.967 167.226 14.6182 167.803 15.1599C168.378 15.6984 169.062 16.1305 169.841 16.4435C170.623 16.7598 171.47 16.9194 172.36 16.9194C173.249 16.9194 174.106 16.7911 174.868 16.5375C175.631 16.2839 176.371 15.8925 177.065 15.3728L177.231 15.2476L175.466 13.5725L175.336 13.6821C174.982 13.9795 174.547 14.2175 174.044 14.3897C173.538 14.5619 173.002 14.6496 172.451 14.6496C171.474 14.6496 170.62 14.349 169.913 13.7604C169.257 13.2156 168.839 12.53 168.66 11.7222H177.997V10.8925H178ZM168.692 9.67773C168.877 8.91693 169.26 8.27823 169.838 7.78356C170.461 7.24505 171.201 6.97266 172.035 6.97266C172.869 6.97266 173.551 7.25131 174.158 7.80234C174.719 8.30954 175.096 8.93885 175.281 9.67773H168.692Z" fill="#782C9D"/>
<path d="M63.8388 24.0732H56.0986V40.1753H58.9156V33.8322H63.8388C65.4484 33.8322 66.7855 33.3782 67.811 32.4828C68.8398 31.5811 69.3623 30.4007 69.3623 28.9762C69.3623 27.5516 68.8431 26.3463 67.8208 25.4383C66.8017 24.5335 65.4614 24.0764 63.8355 24.0764L63.8388 24.0732ZM58.9156 26.4997H63.5824C64.4813 26.4997 65.205 26.7282 65.734 27.1759C66.2663 27.6237 66.5226 28.2154 66.5226 28.9762C66.5226 29.737 66.263 30.3319 65.734 30.789C65.205 31.2429 64.4813 31.4746 63.5824 31.4746H58.9156V26.4997Z" fill="#782C9D"/>
<path d="M78.3524 28.1715C78.1544 28.1402 77.924 28.1245 77.6676 28.1245C76.9407 28.1245 76.2754 28.2779 75.6912 28.5848C75.2693 28.8039 74.8994 29.0982 74.5878 29.4614V28.3719H71.8877V40.1784H74.5878V32.3888C74.8669 31.7501 75.2596 31.2616 75.7561 30.936C76.2592 30.6042 76.8401 30.4382 77.4827 30.4382C77.7033 30.4382 77.924 30.4601 78.1447 30.5008C78.3654 30.5447 78.5861 30.601 78.7938 30.673L79.0404 30.7576V28.3562L78.9203 28.3124C78.7386 28.2497 78.5471 28.1997 78.3524 28.1683V28.1715Z" fill="#782C9D"/>
<path d="M91.8237 29.9188C91.2558 29.3709 90.5775 28.9357 89.8051 28.6194C89.0295 28.3032 88.1954 28.1436 87.3192 28.1436C86.4429 28.1436 85.6089 28.3032 84.8332 28.6194C84.0609 28.9325 83.3793 29.3709 82.8049 29.9156C82.2305 30.4635 81.7729 31.1179 81.4484 31.863C81.1206 32.6082 80.9551 33.4159 80.9551 34.2613C80.9551 35.1066 81.1206 35.9363 81.4484 36.6814C81.7761 37.4266 82.2305 38.0809 82.8049 38.6288C83.3793 39.1767 84.0609 39.6119 84.8332 39.925C85.6056 40.2412 86.4429 40.4009 87.3192 40.4009C88.1954 40.4009 89.0295 40.2412 89.8051 39.925C90.5775 39.6119 91.2558 39.1736 91.8237 38.6257C92.3884 38.0778 92.8427 37.4235 93.1673 36.6783C93.495 35.9332 93.6606 35.1191 93.6606 34.2581C93.6606 33.3972 93.495 32.6082 93.1673 31.8599C92.8395 31.1148 92.3884 30.4604 91.8237 29.9125V29.9188ZM91.0091 34.2644C91.0091 35.3226 90.6456 36.2306 89.9284 36.9663C89.2047 37.7084 88.3512 38.0684 87.3224 38.0684C86.2937 38.0684 85.4077 37.699 84.6937 36.9663C83.9765 36.2337 83.613 35.3226 83.613 34.2644C83.613 33.2062 83.9797 32.3014 84.7034 31.575C85.4239 30.8486 86.3066 30.4823 87.3224 30.4823C88.3382 30.4823 89.2145 30.8486 89.9284 31.575C90.6456 32.3014 91.0091 33.2062 91.0091 34.2644Z" fill="#782C9D"/>
<path d="M96.4192 41.4839C96.4192 41.9285 96.3251 42.2447 96.1336 42.4263C95.9454 42.6078 95.6143 42.7018 95.1567 42.7018C94.9782 42.7018 94.8225 42.6955 94.6862 42.6799C94.5531 42.6642 94.4071 42.6423 94.2578 42.6141L94.0371 42.5703V44.7181L94.1669 44.7556C94.3324 44.8026 94.5369 44.8433 94.79 44.8746C95.0399 44.9059 95.2963 44.9216 95.5494 44.9216C96.6658 44.9216 97.5486 44.6335 98.1717 44.0637C98.798 43.4908 99.1161 42.6767 99.1161 41.6404V28.3687H96.4159V41.4807L96.4192 41.4839Z" fill="#782C9D"/>
<path d="M97.7686 23.7385C97.3304 23.7385 96.9475 23.895 96.6327 24.2081C96.3211 24.5181 96.1621 24.8906 96.1621 25.3102C96.1621 25.7297 96.3211 26.1023 96.6327 26.4122C96.9475 26.7253 97.3304 26.8819 97.7686 26.8819C98.2067 26.8819 98.5896 26.7253 98.9142 26.4122C99.2387 26.0992 99.401 25.7297 99.401 25.307C99.401 24.8844 99.2387 24.5149 98.9142 24.2019C98.5929 23.8919 98.2067 23.7354 97.7686 23.7354V23.7385Z" fill="#782C9D"/>
<path d="M111.98 29.9688C111.461 29.4209 110.828 28.9825 110.101 28.6663C109.374 28.3501 108.582 28.1904 107.752 28.1904C106.921 28.1904 106.096 28.3501 105.347 28.6663C104.597 28.9825 103.942 29.4146 103.4 29.9531C102.858 30.4916 102.419 31.1397 102.101 31.8755C101.783 32.6143 101.621 33.4159 101.621 34.2612C101.621 35.1065 101.787 35.9362 102.114 36.6814C102.442 37.4265 102.897 38.0777 103.474 38.6194C104.049 39.1579 104.733 39.5899 105.512 39.903C106.294 40.2192 107.141 40.3789 108.031 40.3789C108.92 40.3789 109.777 40.2505 110.539 39.9969C111.302 39.7433 112.042 39.352 112.736 38.8323L112.902 38.707L111.136 37.032L111.007 37.1416C110.653 37.439 110.218 37.677 109.715 37.8492C109.209 38.0214 108.673 38.109 108.121 38.109C107.145 38.109 106.291 37.8085 105.584 37.2199C104.928 36.6751 104.509 35.9894 104.331 35.1817H113.668V34.352C113.668 33.4941 113.515 32.677 113.213 31.9256C112.912 31.1741 112.496 30.5167 111.977 29.9688H111.98ZM104.363 33.1403C104.548 32.3795 104.931 31.7408 105.509 31.2462C106.132 30.7077 106.872 30.4353 107.706 30.4353C108.54 30.4353 109.222 30.7139 109.829 31.2649C110.39 31.7721 110.766 32.4014 110.951 33.1403H104.363Z" fill="#782C9D"/>
<path d="M122.281 30.5038C122.859 30.5038 123.42 30.6228 123.952 30.8576C124.488 31.0924 124.978 31.44 125.41 31.8877L125.546 32.0286L127.269 30.2346L127.143 30.1125C126.507 29.4988 125.747 29.0135 124.89 28.6691C124.034 28.3247 123.138 28.1494 122.232 28.1494C121.327 28.1494 120.525 28.3091 119.76 28.6253C118.994 28.9415 118.325 29.3767 117.764 29.9246C117.205 30.4694 116.758 31.1237 116.43 31.8689C116.102 32.614 115.937 33.4218 115.937 34.2671C115.937 35.1125 116.102 35.9421 116.43 36.6873C116.758 37.4324 117.205 38.0837 117.764 38.6222C118.322 39.1607 118.994 39.5927 119.756 39.909C120.522 40.2252 121.356 40.3849 122.229 40.3849C123.102 40.3849 124.017 40.2095 124.845 39.8651C125.673 39.5207 126.412 39.0354 127.049 38.4218L127.175 38.2997L125.526 36.5777L125.39 36.7092C124.926 37.1569 124.433 37.4982 123.927 37.7205C123.424 37.9428 122.885 38.0524 122.323 38.0524C121.291 38.0524 120.409 37.6892 119.691 36.9722C118.974 36.2521 118.611 35.3442 118.611 34.2703C118.611 33.1964 118.971 32.3291 119.678 31.6028C120.386 30.8795 121.259 30.5101 122.271 30.5101L122.281 30.5038Z" fill="#782C9D"/>
<path d="M133.987 24.8589L131.309 25.4851V28.3717H128.791V30.6166H131.309V37.1663C131.309 38.2058 131.637 39.0104 132.28 39.5615C132.919 40.1062 133.844 40.3817 135.038 40.3817C135.386 40.3817 135.775 40.3504 136.197 40.2909C136.619 40.2283 136.995 40.1438 137.313 40.0342L137.437 39.9935V37.7236L137.19 37.8113C136.908 37.9115 136.641 37.9804 136.398 38.0148C136.151 38.0492 135.866 38.068 135.551 38.068C134.98 38.068 134.571 37.9616 134.334 37.7549C134.104 37.5514 133.987 37.1789 133.987 36.6497V30.6197H137.485V28.3749H133.987V24.862V24.8589Z" fill="#782C9D"/>
</g>
<defs>
<clipPath id="clip0_988_4661">
<rect width="178" height="45" fill="white"/>
</clipPath>
</defs>
</svg>
