<svg width="178" height="45" viewBox="0 0 178 45" fill="none" xmlns="http://www.w3.org/2000/svg">
<g clip-path="url(#clip0_2039_2411)">
<path fill-rule="evenodd" clip-rule="evenodd" d="M36.7982 39.5778C36.8664 37.9873 35.5877 36.6441 33.9391 36.5753C32.2905 36.5095 30.8982 37.7431 30.8268 39.3336C30.7587 40.924 32.0373 42.2672 33.6892 42.3361C35.3378 42.4049 36.7333 41.1683 36.8015 39.5778" fill="#494949"/>
<path fill-rule="evenodd" clip-rule="evenodd" d="M20.3371 43.7603C21.5508 42.6833 21.632 40.858 20.5156 39.6871C19.3992 38.5161 17.5072 38.4379 16.2934 39.5149C15.0797 40.5919 14.9985 42.4172 16.1182 43.5881C17.2346 44.7622 19.1266 44.8374 20.3403 43.7603" fill="#494949"/>
<path fill-rule="evenodd" clip-rule="evenodd" d="M42.6173 9.9782C43.9869 10.8642 44.3568 12.6551 43.4384 13.9794C42.52 15.3007 40.6636 15.6576 39.2909 14.7716C37.9213 13.8855 37.5514 12.0947 38.4698 10.7703C39.3882 9.44595 41.2446 9.09216 42.6141 9.9782" fill="#494949"/>
<path fill-rule="evenodd" clip-rule="evenodd" d="M5.61979 35.4762C7.26842 35.5419 8.66067 34.3084 8.73207 32.7179C8.80022 31.1274 7.52156 29.7843 5.87293 29.7154C4.2243 29.6497 2.83205 30.8832 2.76066 32.4768C2.68926 34.0673 3.97116 35.4136 5.61979 35.4793" fill="#494949"/>
<path fill-rule="evenodd" clip-rule="evenodd" d="M46.1329 26.8036C46.4542 28.3659 45.3994 29.8813 43.78 30.1912C42.1606 30.5012 40.5899 29.4837 40.2686 27.9213C39.9473 26.359 41.002 24.8437 42.6214 24.5337C44.2409 24.2238 45.8148 25.2382 46.1329 26.8005" fill="#494949"/>
<path fill-rule="evenodd" clip-rule="evenodd" d="M1.2806 19.5965C2.397 20.7674 4.28903 20.8457 5.50278 19.7687C6.71654 18.6916 6.79767 16.8663 5.68127 15.6954C4.56488 14.5245 2.67285 14.4462 1.4591 15.5263C0.242097 16.6034 0.164209 18.4287 1.2806 19.5996" fill="#494949"/>
<path fill-rule="evenodd" clip-rule="evenodd" d="M10.3691 3.8857C11.2875 2.56447 13.1438 2.20755 14.5166 3.09359C15.8861 3.97963 16.2561 5.77048 15.3377 7.09484C14.4193 8.41607 12.5629 8.77299 11.1902 7.88695C9.81738 7.00092 9.45065 5.21006 10.3691 3.88883" fill="#494949"/>
<path fill-rule="evenodd" clip-rule="evenodd" d="M14.207 10.9144C15.8751 10.138 17.1538 8.73846 17.7315 7.04466C18.3124 5.35086 18.1501 3.49112 17.2933 1.91003L21.2332 -0.00292969C22.6352 2.61761 22.8818 5.58567 21.9244 8.38154C20.9671 11.1774 18.9322 13.4191 16.1899 14.7153L14.207 10.9144Z" fill="#494949"/>
<path fill-rule="evenodd" clip-rule="evenodd" d="M25.4685 45C24.047 42.3889 23.7809 39.4239 24.7188 36.6218C25.6567 33.8197 27.6753 31.5655 30.4111 30.2505L32.42 34.0388C30.7584 34.8247 29.4895 36.2336 28.9215 37.9305C28.3536 39.6274 28.5289 41.4872 29.3986 43.062L25.4717 45H25.4685Z" fill="#494949"/>
<path fill-rule="evenodd" clip-rule="evenodd" d="M27.8091 0.495047C29.4285 0.18509 30.9992 1.20262 31.3205 2.76493C31.6418 4.32723 30.5871 5.84257 28.9676 6.15253C27.3482 6.46249 25.7775 5.44495 25.4562 3.88265C25.1349 2.32034 26.1864 0.801872 27.8058 0.495047" fill="#494949"/>
<path fill-rule="evenodd" clip-rule="evenodd" d="M27.6516 12.715C26.4021 12.715 25.1722 12.5178 23.9844 12.1264L25.3701 8.08757C26.1003 8.33491 26.863 8.46015 27.6386 8.46015C28.7096 8.46015 29.7383 8.2222 30.699 7.75883C32.3508 6.95733 33.6003 5.53278 34.152 3.82959L38.3385 5.16647C37.4103 7.97486 35.4079 10.2447 32.6819 11.566C31.1014 12.333 29.4106 12.7213 27.6484 12.7213L27.6516 12.715Z" fill="#494949"/>
<path fill-rule="evenodd" clip-rule="evenodd" d="M8.35156 39.8654C9.26026 37.0507 11.2464 34.7683 13.9627 33.4283C15.5594 32.6393 17.2762 32.2417 19.0612 32.2417C20.2846 32.2417 21.4919 32.4327 22.657 32.8084L21.3004 36.8566C20.5832 36.6187 19.8335 36.4997 19.0774 36.4997C17.9902 36.4997 16.9484 36.7439 15.9748 37.2229C14.3295 38.0338 13.0897 39.4677 12.551 41.1741L8.35481 39.8654H8.35156Z" fill="#494949"/>
<path fill-rule="evenodd" clip-rule="evenodd" d="M41.4739 21.6782C40.2796 21.6782 39.095 21.4934 37.9559 21.1303C35.0578 20.2067 32.7342 18.2436 31.3906 15.598L35.3305 13.6851C36.1353 15.2912 37.586 16.5248 39.3417 17.0852C40.0362 17.3075 40.7567 17.4202 41.4836 17.4202C42.587 17.4202 43.6807 17.1572 44.664 16.6625L46.6469 20.4634C45.047 21.2586 43.2653 21.6782 41.4771 21.6782H41.4739Z" fill="#494949"/>
<path fill-rule="evenodd" clip-rule="evenodd" d="M11.3619 31.2493C10.5473 29.6463 9.08693 28.4221 7.32796 27.8742C6.64644 27.6613 5.93896 27.5549 5.22823 27.5549C4.10859 27.5549 3.00193 27.8241 2.00886 28.3344L0 24.5461C1.61942 23.7289 3.42383 23.2969 5.23797 23.2969C6.40629 23.2969 7.56487 23.4753 8.68451 23.8229C11.5891 24.7277 13.9257 26.6751 15.2888 29.3144L11.3619 31.2524V31.2493Z" fill="#494949"/>
<path fill-rule="evenodd" clip-rule="evenodd" d="M41.295 36.9631C38.384 36.0676 36.0311 34.1359 34.6616 31.506C33.2888 28.876 33.0843 25.9048 34.0742 23.1152L38.2607 24.4521C37.6505 26.1365 37.7706 27.9994 38.6047 29.593C39.4355 31.1866 40.9121 32.392 42.6775 32.9243L41.2918 36.9631H41.295Z" fill="#494949"/>
<path fill-rule="evenodd" clip-rule="evenodd" d="M8.43625 20.5232C9.03339 18.8326 8.90033 16.9728 8.05655 15.3855C7.21601 13.7981 5.72964 12.6021 3.96094 12.0824L5.31749 8.03418C8.23504 8.91082 10.6009 10.8269 11.9899 13.4475C13.3789 16.068 13.6061 19.0392 12.6357 21.8351L8.4395 20.5264L8.43625 20.5232Z" fill="#494949"/>
<path d="M68.3131 14.2675H58.9146V0.61377H56.0977V16.7158H68.3131V14.2675Z" fill="#494949"/>
<path d="M73.4931 4.90918H70.793V16.7157H73.4931V4.90918Z" fill="#494949"/>
<path d="M72.1455 3.41899C72.5836 3.41899 72.9666 3.26244 73.2911 2.94936C73.6156 2.63627 73.7779 2.26683 73.7779 1.84416C73.7779 1.42149 73.6156 1.05205 73.2911 0.738961C72.9698 0.429004 72.5836 0.272461 72.1455 0.272461C71.7074 0.272461 71.3244 0.429004 71.0096 0.742091C70.6981 1.05205 70.5391 1.42462 70.5391 1.84416C70.5391 2.26369 70.6981 2.63627 71.0096 2.94622C71.3244 3.25931 71.7041 3.41585 72.1455 3.41585V3.41899Z" fill="#494949"/>
<path d="M81.4725 6.99751C82.2643 6.99751 82.8712 7.23232 83.3288 7.71448C83.7831 8.19663 84.0136 8.86977 84.0136 9.72137V16.7157H86.691V9.3394C86.691 9.17346 86.6812 8.995 86.6682 8.81654C86.6553 8.66626 86.6358 8.52224 86.6098 8.38762C86.9246 7.93364 87.2978 7.58611 87.7197 7.35756C88.1578 7.11961 88.6511 6.99751 89.1931 6.99751C89.985 6.99751 90.5918 7.23232 91.0494 7.71448C91.5038 8.19663 91.7342 8.86977 91.7342 9.72137V16.7157H94.4343V9.3394C94.4343 7.97747 93.9962 6.85036 93.1362 5.98624C92.2729 5.12212 91.1468 4.6838 89.7967 4.6838C88.9335 4.6838 88.1416 4.85286 87.4406 5.18473C86.8143 5.48217 86.2626 5.91423 85.7985 6.46526C85.4253 5.9424 84.9417 5.51974 84.3576 5.20978C83.6955 4.85912 82.9426 4.68066 82.1248 4.68066C81.4335 4.68066 80.7909 4.79964 80.21 5.03132C79.7622 5.21291 79.3468 5.45712 78.9736 5.75768V4.90296H76.2734V16.7095H78.9736V8.26238C79.2754 7.84597 79.6356 7.52976 80.0413 7.31686C80.4632 7.10083 80.9435 6.98812 81.4692 6.98812L81.4725 6.99751Z" fill="#494949"/>
<path d="M103.28 16.9194C104.182 16.9194 105.026 16.7911 105.789 16.5375C106.551 16.2839 107.291 15.8925 107.986 15.3728L108.151 15.2476L106.386 13.5725L106.256 13.6821C105.902 13.9795 105.467 14.2175 104.964 14.3897C104.458 14.5619 103.923 14.6496 103.371 14.6496C102.394 14.6496 101.54 14.349 100.833 13.7604C100.177 13.2156 99.7588 12.53 99.5803 11.7222H108.917V10.8925C108.917 10.0347 108.765 9.21749 108.463 8.46609C108.161 7.71468 107.746 7.05719 107.226 6.50929C106.707 5.96139 106.074 5.52307 105.347 5.20685C104.62 4.89063 103.828 4.73096 102.998 4.73096C102.167 4.73096 101.342 4.89063 100.593 5.20685C99.8432 5.52307 99.1876 5.95513 98.6456 6.49364C98.1037 7.03215 97.6655 7.68024 97.3475 8.41599C97.0294 9.15488 96.8672 9.95638 96.8672 10.8017C96.8672 11.647 97.0327 12.4767 97.3605 13.2219C97.6883 13.967 98.1426 14.6182 98.7203 15.1599C99.2947 15.6984 99.9795 16.1305 100.758 16.4435C101.54 16.7598 102.387 16.9194 103.277 16.9194H103.28ZM99.6127 9.67773C99.7977 8.91693 100.181 8.27823 100.758 7.78356C101.381 7.24505 102.121 6.97266 102.955 6.97266C103.789 6.97266 104.471 7.25131 105.078 7.80234C105.639 8.30954 106.016 8.93885 106.201 9.67773H99.6127Z" fill="#494949"/>
<path d="M116.878 6.99755C117.709 6.99755 118.384 7.24176 118.88 7.72078C119.377 8.19981 119.63 8.87294 119.63 9.72141V16.7158H122.33V9.33944C122.33 7.97751 121.873 6.84727 120.97 5.98315C120.068 5.11903 118.903 4.68384 117.508 4.68384C116.771 4.68384 116.086 4.80594 115.469 5.04702C114.979 5.238 114.532 5.50099 114.126 5.82974V0.0751953L111.426 0.648145V16.7158H114.126V8.35948C114.428 7.92742 114.814 7.59242 115.275 7.36073C115.752 7.11965 116.291 6.99755 116.881 6.99755H116.878Z" fill="#494949"/>
<path d="M135.63 6.45587C135.062 5.90797 134.384 5.47277 133.612 5.15656C132.836 4.84034 132.002 4.68066 131.126 4.68066C130.25 4.68066 129.416 4.84034 128.64 5.15656C127.868 5.46964 127.186 5.90797 126.612 6.45274C126.037 7.00064 125.58 7.65499 125.255 8.40014C124.927 9.14529 124.762 9.95305 124.762 10.7984C124.762 11.6437 124.927 12.4734 125.255 13.2185C125.583 13.9637 126.037 14.618 126.612 15.1659C127.186 15.7139 127.868 16.149 128.64 16.4621C129.412 16.7783 130.25 16.938 131.126 16.938C132.002 16.938 132.836 16.7783 133.612 16.4621C134.384 16.149 135.062 15.7107 135.63 15.1628C136.195 14.618 136.649 13.9606 136.974 13.2154C137.302 12.4703 137.467 11.6562 137.467 10.7953C137.467 9.93426 137.302 9.14529 136.974 8.39701C136.646 7.65186 136.195 6.99751 135.63 6.44961V6.45587ZM134.813 10.8015C134.813 11.8597 134.449 12.7677 133.732 13.5035C133.008 14.2455 132.155 14.6055 131.126 14.6055C130.097 14.6055 129.211 14.2361 128.497 13.5035C127.78 12.7708 127.416 11.8597 127.416 10.8015C127.416 9.74328 127.783 8.83846 128.507 8.1121C129.227 7.38574 130.11 7.01942 131.126 7.01942C132.142 7.01942 133.018 7.38574 133.732 8.1121C134.449 8.83846 134.813 9.74328 134.813 10.8015Z" fill="#494949"/>
<path d="M148.111 13.2436C147.809 13.6756 147.422 14.0169 146.971 14.2548C146.504 14.5022 145.969 14.6274 145.381 14.6274C144.537 14.6274 143.882 14.3863 143.379 13.8916C142.879 13.4032 142.626 12.727 142.626 11.8785V4.90918H139.926V12.2636C139.926 13.6255 140.38 14.7589 141.273 15.6293C142.168 16.4997 143.33 16.9411 144.726 16.9411C145.459 16.9411 146.147 16.819 146.764 16.5779C147.25 16.387 147.702 16.124 148.107 15.7952V16.7157H150.807V4.90918H148.107V13.2436H148.111Z" fill="#494949"/>
<path d="M159.772 9.77137L157.63 9.4802C156.965 9.38001 156.485 9.22973 156.209 9.02936C155.952 8.84463 155.829 8.58164 155.829 8.21533C155.829 7.80832 156.017 7.48897 156.4 7.2385C156.803 6.9755 157.348 6.84088 158.023 6.84088C158.623 6.84088 159.227 6.93167 159.821 7.11326C160.415 7.29485 161.041 7.59542 161.674 8.00243L161.817 8.09323L163.228 6.32741L163.069 6.22096C162.313 5.72003 161.521 5.34119 160.723 5.09698C159.921 4.85277 159.068 4.72754 158.185 4.72754C156.767 4.72754 155.599 5.06254 154.716 5.72003C153.817 6.39003 153.363 7.28233 153.363 8.36874C153.363 9.30174 153.684 10.0594 154.32 10.6261C154.943 11.1803 155.868 11.5466 157.066 11.7188L159.211 12.0099C159.827 12.0945 160.282 12.2479 160.567 12.4671C160.833 12.6737 160.963 12.9461 160.963 13.2967C160.963 13.7444 160.733 14.1014 160.259 14.3831C159.762 14.6806 159.104 14.8277 158.305 14.8277C157.663 14.8277 157.023 14.7056 156.403 14.4677C155.777 14.2266 155.151 13.8759 154.547 13.4251L154.404 13.3186L152.918 15.0688L153.051 15.1815C153.72 15.7513 154.521 16.1865 155.436 16.4777C156.345 16.7689 157.335 16.9129 158.373 16.9129C159.087 16.9129 159.766 16.8158 160.389 16.6217C161.012 16.4307 161.557 16.1677 162.015 15.8421C162.475 15.5134 162.849 15.1126 163.115 14.6493C163.384 14.1828 163.524 13.6724 163.524 13.1339C163.524 12.2009 163.193 11.437 162.544 10.864C161.904 10.3036 160.973 9.93105 159.775 9.76198L159.772 9.77137Z" fill="#494949"/>
<path d="M177.999 10.8925C177.999 10.0347 177.847 9.21749 177.545 8.46609C177.243 7.71468 176.828 7.05719 176.308 6.50929C175.789 5.96139 175.156 5.52307 174.429 5.20685C173.702 4.89063 172.91 4.73096 172.08 4.73096C171.249 4.73096 170.425 4.89063 169.675 5.20685C168.925 5.52307 168.27 5.95513 167.728 6.49364C167.186 7.03215 166.748 7.68024 166.43 8.41599C166.111 9.15488 165.949 9.95638 165.949 10.8017C165.949 11.647 166.115 12.4767 166.443 13.2219C166.77 13.967 167.225 14.6182 167.802 15.1599C168.377 15.6984 169.061 16.1305 169.84 16.4435C170.623 16.7598 171.47 16.9194 172.359 16.9194C173.248 16.9194 174.105 16.7911 174.867 16.5375C175.63 16.2839 176.37 15.8925 177.064 15.3728L177.23 15.2476L175.465 13.5725L175.335 13.6821C174.981 13.9795 174.546 14.2175 174.043 14.3897C173.537 14.5619 173.001 14.6496 172.45 14.6496C171.473 14.6496 170.619 14.349 169.912 13.7604C169.256 13.2156 168.838 12.53 168.659 11.7222H177.996V10.8925H177.999ZM168.692 9.67773C168.877 8.91693 169.259 8.27823 169.837 7.78356C170.46 7.24505 171.2 6.97266 172.034 6.97266C172.868 6.97266 173.55 7.25131 174.157 7.80234C174.718 8.30954 175.095 8.93885 175.28 9.67773H168.692Z" fill="#494949"/>
<path d="M63.8378 24.0732H56.0977V40.1753H58.9146V33.8322H63.8378C65.4475 33.8322 66.7845 33.3782 67.8101 32.4828C68.8388 31.5811 69.3613 30.4007 69.3613 28.9762C69.3613 27.5516 68.8421 26.3463 67.8198 25.4383C66.8008 24.5335 65.4604 24.0764 63.8345 24.0764L63.8378 24.0732ZM58.9146 26.4997H63.5814C64.4803 26.4997 65.2041 26.7282 65.733 27.1759C66.2653 27.6237 66.5217 28.2154 66.5217 28.9762C66.5217 29.737 66.262 30.3319 65.733 30.789C65.2041 31.2429 64.4803 31.4746 63.5814 31.4746H58.9146V26.4997Z" fill="#494949"/>
<path d="M78.3514 28.1715C78.1535 28.1402 77.923 28.1245 77.6667 28.1245C76.9397 28.1245 76.2744 28.2779 75.6902 28.5848C75.2684 28.8039 74.8984 29.0982 74.5868 29.4614V28.3719H71.8867V40.1784H74.5868V32.3888C74.8659 31.7501 75.2586 31.2616 75.7552 30.936C76.2582 30.6042 76.8391 30.4382 77.4817 30.4382C77.7024 30.4382 77.923 30.4601 78.1437 30.5008C78.3644 30.5447 78.5851 30.601 78.7928 30.673L79.0394 30.7576V28.3562L78.9194 28.3124C78.7376 28.2497 78.5461 28.1997 78.3514 28.1683V28.1715Z" fill="#494949"/>
<path d="M91.8217 29.9188C91.2538 29.3709 90.5755 28.9357 89.8031 28.6194C89.0275 28.3032 88.1935 28.1436 87.3172 28.1436C86.441 28.1436 85.6069 28.3032 84.8313 28.6194C84.0589 28.9325 83.3774 29.3709 82.803 29.9156C82.2285 30.4635 81.771 31.1179 81.4464 31.863C81.1186 32.6082 80.9531 33.4159 80.9531 34.2613C80.9531 35.1066 81.1186 35.9363 81.4464 36.6814C81.7742 37.4266 82.2285 38.0809 82.803 38.6288C83.3774 39.1767 84.0589 39.6119 84.8313 39.925C85.6037 40.2412 86.441 40.4009 87.3172 40.4009C88.1935 40.4009 89.0275 40.2412 89.8031 39.925C90.5755 39.6119 91.2538 39.1736 91.8217 38.6257C92.3864 38.0778 92.8408 37.4235 93.1653 36.6783C93.4931 35.9332 93.6586 35.1191 93.6586 34.2581C93.6586 33.3972 93.4931 32.6082 93.1653 31.8599C92.8375 31.1148 92.3864 30.4604 91.8217 29.9125V29.9188ZM91.0072 34.2644C91.0072 35.3226 90.6437 36.2306 89.9265 36.9663C89.2028 37.7084 88.3492 38.0684 87.3205 38.0684C86.2917 38.0684 85.4057 37.699 84.6917 36.9663C83.9745 36.2337 83.6111 35.3226 83.6111 34.2644C83.6111 33.2062 83.9778 32.3014 84.7015 31.575C85.4219 30.8486 86.3047 30.4823 87.3205 30.4823C88.3363 30.4823 89.2125 30.8486 89.9265 31.575C90.6437 32.3014 91.0072 33.2062 91.0072 34.2644Z" fill="#494949"/>
<path d="M96.4172 41.4839C96.4172 41.9285 96.3231 42.2447 96.1316 42.4263C95.9434 42.6078 95.6124 42.7018 95.1548 42.7018C94.9763 42.7018 94.8205 42.6955 94.6842 42.6799C94.5512 42.6642 94.4051 42.6423 94.2558 42.6141L94.0352 42.5703V44.7181L94.165 44.7556C94.3305 44.8026 94.5349 44.8433 94.7881 44.8746C95.038 44.9059 95.2943 44.9216 95.5475 44.9216C96.6639 44.9216 97.5466 44.6335 98.1697 44.0637C98.7961 43.4908 99.1141 42.6767 99.1141 41.6404V28.3687H96.414V41.4807L96.4172 41.4839Z" fill="#494949"/>
<path d="M97.7705 23.7385C97.3324 23.7385 96.9494 23.895 96.6346 24.2081C96.3231 24.5181 96.1641 24.8906 96.1641 25.3102C96.1641 25.7297 96.3231 26.1023 96.6346 26.4122C96.9494 26.7253 97.3324 26.8819 97.7705 26.8819C98.2086 26.8819 98.5916 26.7253 98.9161 26.4122C99.2406 26.0992 99.4029 25.7297 99.4029 25.307C99.4029 24.8844 99.2406 24.5149 98.9161 24.2019C98.5948 23.8919 98.2086 23.7354 97.7705 23.7354V23.7385Z" fill="#494949"/>
<path d="M111.98 29.9688C111.461 29.4209 110.828 28.9825 110.101 28.6663C109.374 28.3501 108.582 28.1904 107.752 28.1904C106.921 28.1904 106.096 28.3501 105.347 28.6663C104.597 28.9825 103.942 29.4146 103.4 29.9531C102.858 30.4916 102.419 31.1397 102.101 31.8755C101.783 32.6143 101.621 33.4159 101.621 34.2612C101.621 35.1065 101.787 35.9362 102.114 36.6814C102.442 37.4265 102.897 38.0777 103.474 38.6194C104.049 39.1579 104.733 39.5899 105.512 39.903C106.294 40.2192 107.141 40.3789 108.031 40.3789C108.92 40.3789 109.777 40.2505 110.539 39.9969C111.302 39.7433 112.042 39.352 112.736 38.8323L112.902 38.707L111.136 37.032L111.007 37.1416C110.653 37.439 110.218 37.677 109.715 37.8492C109.209 38.0214 108.673 38.109 108.121 38.109C107.145 38.109 106.291 37.8085 105.584 37.2199C104.928 36.6751 104.509 35.9894 104.331 35.1817H113.668V34.352C113.668 33.4941 113.515 32.677 113.213 31.9256C112.912 31.1741 112.496 30.5167 111.977 29.9688H111.98ZM104.363 33.1403C104.548 32.3795 104.931 31.7408 105.509 31.2462C106.132 30.7077 106.872 30.4353 107.706 30.4353C108.54 30.4353 109.222 30.7139 109.829 31.2649C110.39 31.7721 110.766 32.4014 110.951 33.1403H104.363Z" fill="#494949"/>
<path d="M122.282 30.5038C122.86 30.5038 123.421 30.6228 123.953 30.8576C124.489 31.0924 124.979 31.44 125.411 31.8877L125.547 32.0286L127.27 30.2346L127.144 30.1125C126.508 29.4988 125.748 29.0135 124.891 28.6691C124.035 28.3247 123.139 28.1494 122.233 28.1494C121.328 28.1494 120.526 28.3091 119.761 28.6253C118.995 28.9415 118.326 29.3767 117.765 29.9246C117.206 30.4694 116.759 31.1237 116.431 31.8689C116.103 32.614 115.938 33.4218 115.938 34.2671C115.938 35.1125 116.103 35.9421 116.431 36.6873C116.759 37.4324 117.206 38.0837 117.765 38.6222C118.323 39.1607 118.995 39.5927 119.757 39.909C120.523 40.2252 121.357 40.3849 122.23 40.3849C123.103 40.3849 124.018 40.2095 124.846 39.8651C125.674 39.5207 126.413 39.0354 127.05 38.4218L127.176 38.2997L125.527 36.5777L125.391 36.7092C124.927 37.1569 124.434 37.4982 123.928 37.7205C123.424 37.9428 122.886 38.0524 122.324 38.0524C121.292 38.0524 120.41 37.6892 119.692 36.9722C118.975 36.2521 118.612 35.3442 118.612 34.2703C118.612 33.1964 118.972 32.3291 119.679 31.6028C120.387 30.8795 121.26 30.5101 122.272 30.5101L122.282 30.5038Z" fill="#494949"/>
<path d="M133.989 24.8589L131.311 25.4851V28.3717H128.793V30.6166H131.311V37.1663C131.311 38.2058 131.639 39.0104 132.282 39.5615C132.921 40.1062 133.846 40.3817 135.04 40.3817C135.387 40.3817 135.777 40.3504 136.199 40.2909C136.621 40.2283 136.997 40.1438 137.315 40.0342L137.439 39.9935V37.7236L137.192 37.8113C136.91 37.9115 136.643 37.9804 136.4 38.0148C136.153 38.0492 135.868 38.068 135.553 38.068C134.982 38.068 134.573 37.9616 134.336 37.7549C134.106 37.5514 133.989 37.1789 133.989 36.6497V30.6197H137.487V28.3749H133.989V24.862V24.8589Z" fill="#494949"/>
</g>
<defs>
<clipPath id="clip0_2039_2411">
<rect width="178" height="45" fill="white"/>
</clipPath>
</defs>
</svg>
