<svg width="178" height="46" viewBox="0 0 178 46" fill="none" xmlns="http://www.w3.org/2000/svg">
<g clip-path="url(#clip0_988_2236)">
<path fill-rule="evenodd" clip-rule="evenodd" d="M36.7992 39.7501C36.8674 38.1597 35.5887 36.8165 33.9401 36.7476C32.2914 36.6819 30.8992 37.9154 30.8278 39.5059C30.7596 41.0964 32.0383 42.4396 33.6902 42.5084C35.3388 42.5773 36.7343 41.3406 36.8025 39.7501" fill="#494949"/>
<path fill-rule="evenodd" clip-rule="evenodd" d="M20.3351 43.9329C21.5489 42.8559 21.63 41.0306 20.5136 39.8597C19.3972 38.6887 17.5052 38.6105 16.2915 39.6875C15.0777 40.7645 14.9966 42.5898 16.1162 43.7607C17.2326 44.9348 19.1246 45.01 20.3384 43.9329" fill="#494949"/>
<path fill-rule="evenodd" clip-rule="evenodd" d="M42.6173 10.1508C43.9869 11.0368 44.3568 12.8277 43.4384 14.1521C42.52 15.4733 40.6636 15.8302 39.2909 14.9442C37.9213 14.0581 37.5514 12.2673 38.4698 10.9429C39.3882 9.61856 41.2446 9.26477 42.6141 10.1508" fill="#494949"/>
<path fill-rule="evenodd" clip-rule="evenodd" d="M5.62077 35.6488C7.2694 35.7146 8.66165 34.481 8.73305 32.8905C8.8012 31.3 7.52254 29.9569 5.87391 29.888C4.22528 29.8223 2.83303 31.0558 2.76163 32.6494C2.69024 34.2399 3.97214 35.5862 5.62077 35.6519" fill="#494949"/>
<path fill-rule="evenodd" clip-rule="evenodd" d="M46.1329 26.9762C46.4542 28.5385 45.3994 30.0539 43.78 30.3638C42.1606 30.6738 40.5899 29.6563 40.2686 28.094C39.9473 26.5317 41.002 25.0163 42.6214 24.7064C44.2409 24.3964 45.8148 25.4108 46.1329 26.9731" fill="#494949"/>
<path fill-rule="evenodd" clip-rule="evenodd" d="M1.28158 19.7688C2.39797 20.9398 4.29 21.018 5.50376 19.941C6.71751 18.864 6.79865 17.0387 5.68225 15.8678C4.56586 14.6968 2.67383 14.6185 1.46007 15.6987C0.243074 16.7757 0.165186 18.601 1.28158 19.772" fill="#494949"/>
<path fill-rule="evenodd" clip-rule="evenodd" d="M10.3691 4.05831C11.2875 2.73708 13.1438 2.38016 14.5166 3.2662C15.8861 4.15223 16.2561 5.94309 15.3377 7.26745C14.4193 8.58868 12.5629 8.9456 11.1902 8.05956C9.81738 7.17352 9.45065 5.38267 10.3691 4.06144" fill="#494949"/>
<path fill-rule="evenodd" clip-rule="evenodd" d="M14.208 11.087C15.8761 10.3106 17.1548 8.91107 17.7324 7.21727C18.3134 5.52347 18.1511 3.66373 17.2943 2.08264L21.2342 0.169678C22.6361 2.79022 22.8828 5.75828 21.9254 8.55415C20.968 11.35 18.9332 13.5917 16.1909 14.8879L14.208 11.087Z" fill="#494949"/>
<path fill-rule="evenodd" clip-rule="evenodd" d="M25.4695 45.1729C24.048 42.5617 23.7819 39.5968 24.7198 36.7947C25.6577 33.9925 27.6763 31.7383 30.4121 30.4233L32.421 34.2117C30.7594 34.9975 29.4904 36.4064 28.9225 38.1034C28.3546 39.8003 28.5298 41.66 29.3996 43.2349L25.4727 45.1729H25.4695Z" fill="#494949"/>
<path fill-rule="evenodd" clip-rule="evenodd" d="M27.81 0.66741C29.4295 0.357454 31.0002 1.37499 31.3215 2.93729C31.6428 4.4996 30.588 6.01494 28.9686 6.32489C27.3492 6.63485 25.7785 5.61732 25.4572 4.05501C25.1359 2.49271 26.1874 0.974235 27.8068 0.66741" fill="#494949"/>
<path fill-rule="evenodd" clip-rule="evenodd" d="M27.6506 12.8871C26.4012 12.8871 25.1712 12.6899 23.9834 12.2985L25.3692 8.25969C26.0994 8.50703 26.862 8.63227 27.6376 8.63227C28.7086 8.63227 29.7374 8.39432 30.698 7.93095C32.3499 7.12945 33.5993 5.7049 34.151 4.00171L38.3375 5.33859C37.4093 8.14698 35.407 10.4169 32.6809 11.7381C31.1004 12.5052 29.4096 12.8934 27.6474 12.8934L27.6506 12.8871Z" fill="#494949"/>
<path fill-rule="evenodd" clip-rule="evenodd" d="M8.35059 40.0382C9.25928 37.2236 11.2454 34.9412 13.9618 33.6011C15.5585 32.8122 17.2753 32.4146 19.0602 32.4146C20.2837 32.4146 21.4909 32.6055 22.656 32.9812L21.2995 37.0295C20.5822 36.7915 19.8326 36.6725 19.0764 36.6725C17.9892 36.6725 16.9475 36.9167 15.9739 37.3958C14.3285 38.2067 13.0888 39.6406 12.55 41.3469L8.35383 40.0382H8.35059Z" fill="#494949"/>
<path fill-rule="evenodd" clip-rule="evenodd" d="M41.4719 21.851C40.2776 21.851 39.0931 21.6663 37.954 21.3031C35.0559 20.3795 32.7322 18.4165 31.3887 15.7709L35.3285 13.8579C36.1333 15.464 37.584 16.6976 39.3397 17.258C40.0342 17.4803 40.7547 17.593 41.4817 17.593C42.5851 17.593 43.6787 17.33 44.6621 16.8354L46.645 20.6362C45.045 21.4315 43.2633 21.851 41.4752 21.851H41.4719Z" fill="#494949"/>
<path fill-rule="evenodd" clip-rule="evenodd" d="M11.3619 31.4221C10.5473 29.8191 9.08693 28.595 7.32796 28.0471C6.64644 27.8342 5.93896 27.7277 5.22823 27.7277C4.10859 27.7277 3.00193 27.997 2.00886 28.5073L0 24.7189C1.61942 23.9018 3.42383 23.4697 5.23797 23.4697C6.40629 23.4697 7.56487 23.6482 8.68451 23.9957C11.5891 24.9005 13.9257 26.8479 15.2888 29.4873L11.3619 31.4253V31.4221Z" fill="#494949"/>
<path fill-rule="evenodd" clip-rule="evenodd" d="M41.297 37.1359C38.3859 36.2405 36.0331 34.3087 34.6635 31.6788C33.2908 29.0489 33.0863 26.0777 34.0761 23.2881L38.2626 24.625C37.6525 26.3094 37.7726 28.1722 38.6066 29.7659C39.4374 31.3595 40.914 32.5649 42.6795 33.0971L41.2937 37.1359H41.297Z" fill="#494949"/>
<path fill-rule="evenodd" clip-rule="evenodd" d="M8.4382 20.6956C9.03535 19.0049 8.90229 17.1452 8.0585 15.5578C7.21796 13.9705 5.7316 12.7745 3.96289 12.2548L5.31944 8.20654C8.23699 9.08319 10.6028 10.9993 11.9918 13.6198C13.3808 16.2404 13.608 19.2116 12.6377 22.0074L8.44145 20.6987L8.4382 20.6956Z" fill="#494949"/>
<path d="M68.3141 14.4403H58.9156V0.786621H56.0986V16.8887H68.3141V14.4403Z" fill="#494949"/>
<path d="M73.4941 5.08203H70.7939V16.8885H73.4941V5.08203Z" fill="#494949"/>
<path d="M72.1435 3.59184C72.5817 3.59184 72.9646 3.43529 73.2891 3.12221C73.6137 2.80912 73.7759 2.43968 73.7759 2.01701C73.7759 1.59434 73.6137 1.2249 73.2891 0.911812C72.9679 0.601856 72.5817 0.445312 72.1435 0.445312C71.7054 0.445312 71.3225 0.601856 71.0077 0.914943C70.6961 1.2249 70.5371 1.59747 70.5371 2.01701C70.5371 2.43655 70.6961 2.80912 71.0077 3.11908C71.3225 3.43216 71.7022 3.58871 72.1435 3.58871V3.59184Z" fill="#494949"/>
<path d="M81.4744 7.17036C82.2663 7.17036 82.8731 7.40518 83.3307 7.88733C83.7851 8.36948 84.0155 9.04262 84.0155 9.89422V16.8886H86.6929V9.51225C86.6929 9.34632 86.6832 9.16786 86.6702 8.9894C86.6572 8.83911 86.6377 8.69509 86.6118 8.56047C86.9266 8.10649 87.2998 7.75896 87.7217 7.53041C88.1598 7.29246 88.6531 7.17036 89.1951 7.17036C89.9869 7.17036 90.5938 7.40518 91.0514 7.88733C91.5057 8.36948 91.7362 9.04262 91.7362 9.89422V16.8886H94.4363V9.51225C94.4363 8.15032 93.9981 7.02321 93.1381 6.15909C92.2749 5.29497 91.1488 4.85665 89.7987 4.85665C88.9354 4.85665 88.1436 5.02571 87.4426 5.35759C86.8162 5.65502 86.2645 6.08708 85.8004 6.63811C85.4272 6.11526 84.9437 5.69259 84.3595 5.38263C83.6975 5.03198 82.9445 4.85352 82.1267 4.85352C81.4355 4.85352 80.7929 4.97249 80.212 5.20417C79.7641 5.38576 79.3487 5.62997 78.9755 5.93054V5.07581H76.2754V16.8823H78.9755V8.43523C79.2773 8.01883 79.6376 7.70261 80.0432 7.48971C80.4651 7.27368 80.9454 7.16097 81.4712 7.16097L81.4744 7.17036Z" fill="#494949"/>
<path d="M103.279 17.092C104.181 17.092 105.025 16.9637 105.788 16.7101C106.55 16.4565 107.29 16.0651 107.985 15.5454L108.15 15.4202L106.385 13.7451L106.255 13.8547C105.901 14.1522 105.466 14.3901 104.963 14.5623C104.457 14.7345 103.922 14.8222 103.37 14.8222C102.393 14.8222 101.539 14.5216 100.832 13.933C100.176 13.3882 99.7578 12.7026 99.5793 11.8948H108.916V11.0651C108.916 10.2073 108.764 9.3901 108.462 8.63869C108.16 7.88728 107.745 7.2298 107.225 6.6819C106.706 6.134 106.073 5.69567 105.346 5.37946C104.619 5.06324 103.827 4.90356 102.997 4.90356C102.166 4.90356 101.342 5.06324 100.592 5.37946C99.8422 5.69567 99.1866 6.12773 98.6446 6.66624C98.1027 7.20475 97.6646 7.85284 97.3465 8.5886C97.0285 9.32748 96.8662 10.129 96.8662 10.9743C96.8662 11.8197 97.0317 12.6493 97.3595 13.3945C97.6873 14.1396 98.1416 14.7909 98.7193 15.3325C99.2937 15.871 99.9785 16.3031 100.757 16.6162C101.539 16.9324 102.387 17.092 103.276 17.092H103.279ZM99.6118 9.85034C99.7967 9.08954 100.18 8.45084 100.757 7.95616C101.38 7.41765 102.12 7.14527 102.954 7.14527C103.788 7.14527 104.47 7.42392 105.077 7.97495C105.638 8.48215 106.015 9.11145 106.2 9.85034H99.6118Z" fill="#494949"/>
<path d="M116.877 7.1704C117.708 7.1704 118.383 7.41461 118.879 7.89363C119.376 8.37266 119.629 9.04579 119.629 9.89426V16.8886H122.329V9.51229C122.329 8.15036 121.872 7.02012 120.969 6.156C120.067 5.29188 118.902 4.85669 117.507 4.85669C116.77 4.85669 116.085 4.97879 115.468 5.21987C114.978 5.41085 114.531 5.67385 114.125 6.00259V0.248047L111.425 0.820996V16.8886H114.125V8.53233C114.427 8.10027 114.813 7.76527 115.274 7.53358C115.751 7.29251 116.29 7.1704 116.88 7.1704H116.877Z" fill="#494949"/>
<path d="M135.632 6.62872C135.064 6.08082 134.386 5.64563 133.614 5.32941C132.838 5.01319 132.004 4.85352 131.128 4.85352C130.252 4.85352 129.417 5.01319 128.642 5.32941C127.869 5.64249 127.188 6.08082 126.614 6.62559C126.039 7.17349 125.581 7.82784 125.257 8.57299C124.929 9.31814 124.764 10.1259 124.764 10.9712C124.764 11.8166 124.929 12.6463 125.257 13.3914C125.585 14.1365 126.039 14.7909 126.614 15.3388C127.188 15.8867 127.869 16.3219 128.642 16.635C129.414 16.9512 130.252 17.1109 131.128 17.1109C132.004 17.1109 132.838 16.9512 133.614 16.635C134.386 16.3219 135.064 15.8836 135.632 15.3357C136.197 14.7909 136.651 14.1334 136.976 13.3883C137.304 12.6431 137.469 11.8291 137.469 10.9681C137.469 10.1071 137.304 9.31814 136.976 8.56986C136.648 7.82471 136.197 7.17036 135.632 6.62246V6.62872ZM134.814 10.9744C134.814 12.0326 134.451 12.9406 133.734 13.6763C133.01 14.4183 132.157 14.7784 131.128 14.7784C130.099 14.7784 129.213 14.4089 128.499 13.6763C127.782 12.9437 127.418 12.0326 127.418 10.9744C127.418 9.91613 127.785 9.01131 128.509 8.28495C129.229 7.55859 130.112 7.19228 131.128 7.19228C132.144 7.19228 133.02 7.55859 133.734 8.28495C134.451 9.01131 134.814 9.91613 134.814 10.9744Z" fill="#494949"/>
<path d="M148.111 13.4164C147.809 13.8485 147.422 14.1897 146.971 14.4277C146.504 14.675 145.969 14.8003 145.381 14.8003C144.537 14.8003 143.882 14.5592 143.379 14.0645C142.879 13.5761 142.626 12.8998 142.626 12.0513V5.08203H139.926V12.4364C139.926 13.7984 140.38 14.9317 141.273 15.8021C142.168 16.6725 143.33 17.114 144.726 17.114C145.459 17.114 146.147 16.9919 146.764 16.7508C147.25 16.5598 147.702 16.2968 148.107 15.9681V16.8885H150.807V5.08203H148.107V13.4164H148.111Z" fill="#494949"/>
<path d="M159.771 9.94422L157.629 9.65305C156.964 9.55286 156.484 9.40258 156.208 9.20221C155.951 9.01749 155.828 8.75449 155.828 8.38818C155.828 7.98117 156.016 7.66182 156.399 7.41135C156.802 7.14836 157.347 7.01373 158.022 7.01373C158.622 7.01373 159.226 7.10452 159.82 7.28611C160.414 7.4677 161.04 7.76827 161.673 8.17528L161.816 8.26608L163.227 6.50027L163.068 6.39382C162.312 5.89288 161.52 5.51404 160.722 5.26983C159.92 5.02563 159.067 4.90039 158.184 4.90039C156.766 4.90039 155.598 5.23539 154.715 5.89288C153.816 6.56288 153.362 7.45518 153.362 8.54159C153.362 9.47459 153.683 10.2323 154.319 10.799C154.942 11.3531 155.867 11.7194 157.065 11.8916L159.21 12.1828C159.826 12.2673 160.281 12.4207 160.566 12.6399C160.832 12.8465 160.962 13.1189 160.962 13.4696C160.962 13.9173 160.732 14.2742 160.258 14.556C159.761 14.8534 159.103 15.0006 158.304 15.0006C157.662 15.0006 157.022 14.8785 156.402 14.6405C155.776 14.3995 155.15 14.0488 154.546 13.5979L154.403 13.4915L152.917 15.2417L153.05 15.3544C153.719 15.9242 154.52 16.3594 155.435 16.6505C156.344 16.9417 157.334 17.0857 158.372 17.0857C159.086 17.0857 159.765 16.9887 160.388 16.7946C161.011 16.6036 161.556 16.3406 162.014 16.015C162.474 15.6862 162.848 15.2855 163.114 14.8221C163.383 14.3556 163.523 13.8453 163.523 13.3068C163.523 12.3738 163.192 11.6098 162.543 11.0369C161.903 10.4765 160.972 10.1039 159.774 9.93483L159.771 9.94422Z" fill="#494949"/>
<path d="M178 11.0651C178 10.2073 177.848 9.3901 177.546 8.63869C177.244 7.88728 176.829 7.2298 176.309 6.6819C175.79 6.134 175.157 5.69567 174.43 5.37946C173.703 5.06324 172.911 4.90356 172.081 4.90356C171.25 4.90356 170.426 5.06324 169.676 5.37946C168.926 5.69567 168.271 6.12773 167.729 6.66624C167.187 7.20475 166.749 7.85284 166.431 8.5886C166.112 9.32748 165.95 10.129 165.95 10.9743C165.95 11.8197 166.116 12.6493 166.443 13.3945C166.771 14.1396 167.226 14.7909 167.803 15.3325C168.378 15.871 169.062 16.3031 169.841 16.6162C170.623 16.9324 171.47 17.092 172.36 17.092C173.249 17.092 174.106 16.9637 174.868 16.7101C175.631 16.4565 176.371 16.0651 177.065 15.5454L177.231 15.4202L175.466 13.7451L175.336 13.8547C174.982 14.1522 174.547 14.3901 174.044 14.5623C173.538 14.7345 173.002 14.8222 172.451 14.8222C171.474 14.8222 170.62 14.5216 169.913 13.933C169.257 13.3882 168.839 12.7026 168.66 11.8948H177.997V11.0651H178ZM168.692 9.85034C168.877 9.08954 169.26 8.45084 169.838 7.95616C170.461 7.41765 171.201 7.14527 172.035 7.14527C172.869 7.14527 173.551 7.42392 174.158 7.97495C174.719 8.48215 175.096 9.11145 175.281 9.85034H168.692Z" fill="#494949"/>
<path d="M63.8388 24.2461H56.0986V40.3482H58.9156V34.005H63.8388C65.4484 34.005 66.7855 33.551 67.811 32.6556C68.8398 31.7539 69.3623 30.5736 69.3623 29.149C69.3623 27.7245 68.8431 26.5191 67.8208 25.6112C66.8017 24.7063 65.4614 24.2492 63.8355 24.2492L63.8388 24.2461ZM58.9156 26.6725H63.5824C64.4813 26.6725 65.205 26.9011 65.734 27.3488C66.2663 27.7965 66.5226 28.3882 66.5226 29.149C66.5226 29.9098 66.263 30.5047 65.734 30.9618C65.205 31.4158 64.4813 31.6475 63.5824 31.6475H58.9156V26.6725Z" fill="#494949"/>
<path d="M78.3524 28.3443C78.1544 28.313 77.924 28.2974 77.6676 28.2974C76.9407 28.2974 76.2754 28.4508 75.6912 28.7576C75.2693 28.9768 74.8994 29.2711 74.5878 29.6342V28.5447H71.8877V40.3512H74.5878V32.5616C74.8669 31.9229 75.2596 31.4345 75.7561 31.1089C76.2592 30.777 76.8401 30.6111 77.4827 30.6111C77.7033 30.6111 77.924 30.633 78.1447 30.6737C78.3654 30.7175 78.5861 30.7739 78.7938 30.8459L79.0404 30.9304V28.529L78.9203 28.4852C78.7386 28.4226 78.5471 28.3725 78.3524 28.3412V28.3443Z" fill="#494949"/>
<path d="M91.8237 30.0914C91.2558 29.5435 90.5775 29.1083 89.8051 28.7921C89.0295 28.4758 88.1954 28.3162 87.3192 28.3162C86.4429 28.3162 85.6089 28.4758 84.8332 28.7921C84.0609 29.1051 83.3793 29.5435 82.8049 30.0882C82.2305 30.6361 81.7729 31.2905 81.4484 32.0356C81.1206 32.7808 80.9551 33.5885 80.9551 34.4339C80.9551 35.2792 81.1206 36.1089 81.4484 36.854C81.7761 37.5992 82.2305 38.2535 82.8049 38.8014C83.3793 39.3493 84.0609 39.7845 84.8332 40.0976C85.6056 40.4138 86.4429 40.5735 87.3192 40.5735C88.1954 40.5735 89.0295 40.4138 89.8051 40.0976C90.5775 39.7845 91.2558 39.3462 91.8237 38.7983C92.3884 38.2504 92.8427 37.5961 93.1673 36.8509C93.495 36.1058 93.6606 35.2917 93.6606 34.4308C93.6606 33.5698 93.495 32.7808 93.1673 32.0325C92.8395 31.2874 92.3884 30.633 91.8237 30.0851V30.0914ZM91.0091 34.437C91.0091 35.4952 90.6456 36.4032 89.9284 37.139C89.2047 37.881 88.3512 38.241 87.3224 38.241C86.2937 38.241 85.4077 37.8716 84.6937 37.139C83.9765 36.4063 83.613 35.4952 83.613 34.437C83.613 33.3788 83.9797 32.474 84.7034 31.7476C85.4239 31.0212 86.3066 30.6549 87.3224 30.6549C88.3382 30.6549 89.2145 31.0212 89.9284 31.7476C90.6456 32.474 91.0091 33.3788 91.0091 34.437Z" fill="#494949"/>
<path d="M96.4192 41.657C96.4192 42.1015 96.3251 42.4178 96.1336 42.5994C95.9454 42.7809 95.6143 42.8749 95.1567 42.8749C94.9782 42.8749 94.8225 42.8686 94.6862 42.853C94.5531 42.8373 94.4071 42.8154 94.2578 42.7872L94.0371 42.7434V44.8912L94.1669 44.9287C94.3324 44.9757 94.5369 45.0164 94.79 45.0477C95.0399 45.079 95.2963 45.0947 95.5494 45.0947C96.6658 45.0947 97.5486 44.8066 98.1717 44.2368C98.798 43.6639 99.1161 42.8498 99.1161 41.8135V28.5417H96.4159V41.6538L96.4192 41.657Z" fill="#494949"/>
<path d="M97.7686 23.9111C97.3304 23.9111 96.9475 24.0676 96.6327 24.3807C96.3211 24.6907 96.1621 25.0632 96.1621 25.4828C96.1621 25.9023 96.3211 26.2749 96.6327 26.5849C96.9475 26.8979 97.3304 27.0545 97.7686 27.0545C98.2067 27.0545 98.5896 26.8979 98.9142 26.5849C99.2387 26.2718 99.401 25.9023 99.401 25.4797C99.401 25.057 99.2387 24.6875 98.9142 24.3745C98.5929 24.0645 98.2067 23.908 97.7686 23.908V23.9111Z" fill="#494949"/>
<path d="M111.98 30.1416C111.461 29.5937 110.828 29.1554 110.101 28.8392C109.374 28.523 108.582 28.3633 107.752 28.3633C106.921 28.3633 106.096 28.523 105.347 28.8392C104.597 29.1554 103.942 29.5875 103.4 30.126C102.858 30.6645 102.419 31.3126 102.101 32.0483C101.783 32.7872 101.621 33.5887 101.621 34.434C101.621 35.2794 101.787 36.1091 102.114 36.8542C102.442 37.5993 102.897 38.2506 103.474 38.7922C104.049 39.3307 104.733 39.7628 105.512 40.0759C106.294 40.3921 107.141 40.5518 108.031 40.5518C108.92 40.5518 109.777 40.4234 110.539 40.1698C111.302 39.9162 112.042 39.5248 112.736 39.0051L112.902 38.8799L111.136 37.2049L111.007 37.3144C110.653 37.6119 110.218 37.8498 109.715 38.022C109.209 38.1942 108.673 38.2819 108.121 38.2819C107.145 38.2819 106.291 37.9813 105.584 37.3927C104.928 36.8479 104.509 36.1623 104.331 35.3545H113.668V34.5248C113.668 33.667 113.515 32.8498 113.213 32.0984C112.912 31.347 112.496 30.6895 111.977 30.1416H111.98ZM104.363 33.3132C104.548 32.5524 104.931 31.9137 105.509 31.419C106.132 30.8805 106.872 30.6081 107.706 30.6081C108.54 30.6081 109.222 30.8868 109.829 31.4378C110.39 31.945 110.766 32.5743 110.951 33.3132H104.363Z" fill="#494949"/>
<path d="M122.281 30.6769C122.859 30.6769 123.42 30.7959 123.952 31.0307C124.488 31.2655 124.978 31.6131 125.41 32.0608L125.546 32.2017L127.269 30.4077L127.143 30.2856C126.507 29.6719 125.747 29.1866 124.89 28.8422C124.034 28.4978 123.138 28.3225 122.232 28.3225C121.327 28.3225 120.525 28.4822 119.76 28.7984C118.994 29.1146 118.325 29.5498 117.764 30.0977C117.205 30.6425 116.758 31.2968 116.43 32.042C116.102 32.7871 115.937 33.5949 115.937 34.4402C115.937 35.2856 116.102 36.1152 116.43 36.8604C116.758 37.6055 117.205 38.2568 117.764 38.7953C118.322 39.3338 118.994 39.7658 119.756 40.0821C120.522 40.3983 121.356 40.558 122.229 40.558C123.102 40.558 124.017 40.3826 124.845 40.0382C125.673 39.6938 126.412 39.2085 127.049 38.5949L127.175 38.4728L125.526 36.7508L125.39 36.8823C124.926 37.33 124.433 37.6713 123.927 37.8936C123.424 38.1159 122.885 38.2255 122.323 38.2255C121.291 38.2255 120.409 37.8623 119.691 37.1453C118.974 36.4252 118.611 35.5172 118.611 34.4434C118.611 33.3695 118.971 32.5022 119.678 31.7759C120.386 31.0526 121.259 30.6832 122.271 30.6832L122.281 30.6769Z" fill="#494949"/>
<path d="M133.987 25.032L131.309 25.6582V28.5448H128.791V30.7897H131.309V37.3394C131.309 38.3789 131.637 39.1835 132.28 39.7345C132.919 40.2793 133.844 40.5548 135.038 40.5548C135.386 40.5548 135.775 40.5235 136.197 40.464C136.619 40.4014 136.995 40.3169 137.313 40.2073L137.437 40.1666V37.8967L137.19 37.9844C136.908 38.0846 136.641 38.1535 136.398 38.1879C136.151 38.2223 135.866 38.2411 135.551 38.2411C134.98 38.2411 134.571 38.1347 134.334 37.928C134.104 37.7245 133.987 37.352 133.987 36.8228V30.7928H137.485V28.5479H133.987V25.0351V25.032Z" fill="#494949"/>
</g>
<defs>
<clipPath id="clip0_988_2236">
<rect width="178" height="45" fill="white" transform="translate(0 0.172852)"/>
</clipPath>
</defs>
</svg>
